<svg aria-hidden="true" style="position: absolute; width: 0; height: 0; overflow: hidden;" version="1.1" xmlns="http://www.w3.org/2000/svg" xmlns:xlink="http://www.w3.org/1999/xlink">
<defs>
<symbol id="icon-antenna-1" viewBox="0 0 32 32">
<path fill="#212121" style="fill: var(--color1, #212121)" d="M30.773 22.098l-8.443-8.505 0.937-4.616c0.225 0.090 0.485 0.144 0.758 0.146h0.007c0.008 0 0.017 0 0.026 0 1.192 0 2.159-0.967 2.159-2.159s-0.967-2.159-2.159-2.159c-1.192 0-2.159 0.967-2.159 2.159 0 0.259 0.046 0.508 0.13 0.739l-0.005-0.015-4.96 0.606-8.091-8.133c-0.096-0.098-0.229-0.159-0.376-0.16h-0c-0.14 0.001-0.274 0.057-0.373 0.155l-1.512 1.504c-0.096 0.097-0.156 0.23-0.156 0.377s0.060 0.281 0.156 0.377v0l0.814 0.825c-1.143 2.062-1.816 4.522-1.816 7.139 0 4.106 1.656 7.824 4.336 10.525l-0.001-0.001c0.043 0.041 0.092 0.074 0.146 0.097-0.032 0.164-0.051 0.353-0.052 0.546v6.188h-6.4c-1.472 0.001-2.666 1.194-2.667 2.666v1.067c0 0.295 0.239 0.534 0.534 0.534h24.534c0.294 0 0.533-0.239 0.533-0.534v-1.067c-0.002-1.472-1.195-2.665-2.666-2.666h-6.4v-2.742c1.003 0.21 2.024 0.317 3.049 0.32 2.58-0.003 5.005-0.663 7.117-1.822l-0.077 0.039 0.818 0.823c0.099 0.101 0.235 0.159 0.376 0.16 0.14-0.001 0.274-0.057 0.373-0.155l1.512-1.504c0.096-0.097 0.156-0.23 0.156-0.377s-0.060-0.281-0.156-0.377v0zM23.28 6.233c0.193-0.192 0.459-0.31 0.752-0.31 0.589 0 1.067 0.478 1.067 1.066s-0.477 1.066-1.067 1.066c-0 0-0 0-0 0h-0.004c-0.587-0.003-1.061-0.479-1.061-1.066 0-0.295 0.12-0.563 0.314-0.756l0-0h-0.002zM22.024 9.737l-0.598 2.946-1.175-1.183 1.774-1.763zM21.419 8.835l-1.92 1.909-1.486-1.493 3.406-0.416zM24.004 28.8c0.884 0 1.6 0.716 1.6 1.6v0 0.534h-23.466v-0.534c0-0.884 0.716-1.6 1.6-1.6v0h20.267zM16.538 26.666v1.067h-5.334v-1.067h5.334zM11.204 25.6v-4.053c0-1.294 1.196-2.346 2.667-2.346s2.667 1.053 2.667 2.346v4.053h-5.334zM17.604 23.904v-2.357c0-1.882-1.675-3.413-3.733-3.413-0.017-0-0.038-0-0.058-0-1.353 0-2.54 0.707-3.213 1.771l-0.009 0.016c-2.36-2.482-3.812-5.846-3.812-9.55 0-2.314 0.567-4.496 1.569-6.414l-0.036 0.077 18.602 18.709c-1.823 0.947-3.979 1.502-6.266 1.502-1.079 0-2.128-0.124-3.136-0.357l0.093 0.018zM28.893 23.22l-21.057-21.181 0.754-0.752 7.935 7.98c0.004 0 0.006 0.007 0.010 0.010l13.114 13.191-0.757 0.752z"></path>
<path fill="#2196f3" style="fill: var(--color2, #2196f3)" d="M13.876 20.267h-0.005c-0.001 0-0.002 0-0.002 0-0.884 0-1.6 0.716-1.6 1.6s0.715 1.599 1.597 1.6h0.005c0.001 0 0.001 0 0.002 0 0.884 0 1.6-0.716 1.6-1.6s-0.715-1.599-1.598-1.6h-0zM14.249 22.245c-0.096 0.096-0.229 0.155-0.376 0.155-0.295 0-0.534-0.239-0.534-0.534s0.238-0.533 0.532-0.533h0c0.293 0.001 0.531 0.239 0.531 0.533 0 0.148-0.060 0.282-0.157 0.378l-0 0h0.005z"></path>
</symbol>
<symbol id="icon-astronaut-1" viewBox="0 0 32 32">
<path fill="#2196f3" style="fill: var(--color2, #2196f3)" d="M31.974 4.524c-0.064-0.191-0.227-0.332-0.427-0.362l-0.003-0-1.911-0.278-0.855-1.731c-0.179-0.365-0.777-0.365-0.956 0l-0.855 1.731-1.911 0.278c-0.26 0.039-0.457 0.26-0.457 0.528 0 0.15 0.062 0.285 0.161 0.382l1.383 1.348-0.326 1.903c-0.034 0.2 0.048 0.402 0.212 0.522 0.166 0.12 0.383 0.135 0.562 0.040l1.709-0.899 1.709 0.899c0.072 0.038 0.157 0.061 0.247 0.061 0.295 0 0.534-0.239 0.534-0.534 0-0.031-0.003-0.062-0.008-0.092l0 0.003-0.326-1.903 1.383-1.348c0.099-0.097 0.161-0.233 0.161-0.382 0-0.059-0.009-0.115-0.027-0.168l0.001 0.004zM29.511 5.851c-0.126 0.122-0.183 0.299-0.153 0.472l0.191 1.114-1-0.526c-0.072-0.039-0.158-0.062-0.249-0.062s-0.177 0.023-0.252 0.063l0.003-0.001-1 0.526 0.191-1.114c0.005-0.027 0.008-0.059 0.008-0.091 0-0.149-0.061-0.285-0.16-0.381l-0-0-0.811-0.79 1.119-0.162c0.174-0.025 0.324-0.134 0.402-0.292l0.5-1.013 0.5 1.013c0.078 0.158 0.228 0.267 0.402 0.292l1.119 0.162-0.809 0.79zM26.134 20.522h-1.067v1.067h1.067v-1.067zM26.134 22.656h-1.067v1.066h1.067v-1.066zM27.2 21.589h-1.067v1.067h1.067v-1.067zM25.067 21.589h-1.067v1.067h1.067v-1.067zM22.4 26.389h-1.067v1.067h1.067v-1.067zM22.4 28.523h-1.067v1.067h1.067v-1.067zM23.467 27.456h-1.067v1.067h1.067v-1.067zM21.334 27.456h-1.067v1.067h1.067v-1.067zM16 24.256h-1.066v1.067h1.066v-1.067zM16 26.389h-1.066v1.067h1.066v-1.067zM17.067 25.322h-1.067v1.067h1.067v-1.067zM14.934 25.322h-1.067v1.067h1.067v-1.067zM5.867 6.122h-1.066v1.066h1.066v-1.066zM5.867 8.256h-1.066v1.066h1.066v-1.066zM6.933 7.189h-1.067v1.067h1.066v-1.067zM4.8 7.189h-1.067v1.067h1.067v-1.067z"></path>
<path fill="#212121" style="fill: var(--color1, #212121)" d="M24.715 14.16c-0.28-0.376-0.698-0.636-1.179-0.703l-0.009-0.001c-0.076-0.012-0.164-0.018-0.254-0.018-0.411 0-0.789 0.139-1.090 0.373l0.004-0.003-1.253 0.96-1.898 1.417-1.358-0.541c2.421-1.086 4.113-3.508 4.113-6.32 0-3.823-3.122-6.934-6.961-6.934s-6.961 3.11-6.961 6.934c0 1.386 0.415 2.674 1.12 3.759l-2.768-0.024c-0.009 0-0.016 0.005-0.023 0.005-0.057 0.003-0.11 0.014-0.159 0.033l0.004-0.001c-0.013 0.005-0.026 0.007-0.038 0.013-0.006 0.003-0.013 0.003-0.019 0.006l-3.233 1.596c-0 0-0.001 0-0.001 0.001l-1.893 0.91c-0.024 0.011-0.045 0.023-0.065 0.036l0.001-0.001c-0.482 0.324-0.795 0.867-0.795 1.483 0 0.297 0.073 0.577 0.201 0.823l-0.005-0.010c0.22 0.424 0.592 0.742 1.043 0.885l0.013 0.003c0.161 0.053 0.345 0.083 0.537 0.083 0.308 0 0.598-0.078 0.851-0.216l-0.009 0.005 1.388-0.738 2.264-1.169 1.357-0.008-5.442 5.415c0 0.001-0.001 0.001-0.001 0.001l-1.339 1.333c-0.303 0.299-0.491 0.714-0.491 1.173 0 0.002 0 0.003 0 0.005v-0c0.002 0.919 0.748 1.664 1.667 1.664 0.001 0 0.002 0 0.002 0h-0c0.428 0 0.854-0.162 1.18-0.485l1.314-1.309 1.741-1.3 0.901 0.897-3.102 3.088c-0.303 0.299-0.491 0.714-0.491 1.173 0 0.001 0 0.003 0 0.004v-0c0 0.445 0.174 0.864 0.49 1.179 0.302 0.3 0.717 0.485 1.176 0.485 0.001 0 0.002 0 0.003 0h-0c0.427 0 0.855-0.162 1.18-0.485l4.488-4.472c0.007-0.006 0.016-0.009 0.022-0.016l5.166-5.658 3.471 0.494c0.025 0.004 0.050 0.006 0.075 0.006 0.064 0 0.127-0.016 0.187-0.038 0.017-0.006 0.032-0.015 0.049-0.023 0.019-0.010 0.039-0.015 0.058-0.027l3.213-2.133c0.012-0.008 0.018-0.021 0.029-0.030 0.013-0.010 0.029-0.014 0.041-0.026l1.271-1.191c0.348-0.326 0.564-0.787 0.564-1.3 0-0.4-0.132-0.769-0.355-1.066l0.003 0.005zM2.13 17.77c-0.098 0.054-0.215 0.086-0.34 0.086-0.078 0-0.153-0.013-0.224-0.036l0.005 0.001c-0.294-0.093-0.504-0.364-0.504-0.683 0-0.235 0.114-0.444 0.289-0.575l0.002-0.001 1.314-0.632 0.316 0.924 0.133 0.389-0.992 0.527zM5.627 15.942l-1.548 0.8-0.255-0.746-0.184-0.537 2.027-1.001-0.040 1.484zM20.727 9.322c0 0.918-0.219 1.785-0.599 2.56l-4.181-1.899c-0.044-0.575-0.342-1.072-0.782-1.384l-0.006-0.004 1.464-4.861c2.377 0.757 4.104 2.975 4.104 5.588zM8.938 9.322c0-3.235 2.644-5.867 5.894-5.867 0.253 0 0.5 0.022 0.745 0.053l-1.432 4.753c-0.019 0-0.037-0.006-0.057-0.006-0 0-0.001 0-0.001 0-1.032 0-1.869 0.835-1.872 1.867v0c0.003 1.031 0.84 1.867 1.872 1.867 0 0 0 0 0.001 0h-0c0.695 0 1.295-0.383 1.618-0.944l3.863 1.755c-1.075 1.447-2.795 2.39-4.737 2.39-3.25 0-5.894-2.632-5.894-5.867zM14.895 10.122c0 0.441-0.362 0.8-0.806 0.8-0 0-0.001 0-0.001 0-0.443 0-0.802-0.358-0.804-0.8v-0c0-0.441 0.361-0.8 0.806-0.8s0.806 0.359 0.806 0.8zM2.464 25.146c-0.11 0.109-0.261 0.176-0.428 0.176s-0.317-0.067-0.427-0.175l0 0c-0.109-0.108-0.176-0.257-0.176-0.422s0.067-0.314 0.176-0.422l0-0 0.962-0.959 0.852 0.848-0.959 0.954zM5.678 28.88c-0.11 0.109-0.261 0.176-0.428 0.176s-0.317-0.067-0.427-0.175l0 0c-0.109-0.108-0.176-0.257-0.176-0.422s0.067-0.314 0.176-0.422l0-0 0.963-0.959 0.852 0.848-0.96 0.955zM9.16 25.411l-0.001 0.001-1.765 1.76-0.852-0.848 1.765-1.757c0.040-0.040 0.065-0.088 0.090-0.136 0.007-0.014 0.020-0.026 0.026-0.040 0.016-0.041 0.019-0.085 0.026-0.128 0.003-0.025 0.014-0.048 0.014-0.073 0-0.035-0.013-0.070-0.020-0.105-0.006-0.032-0.006-0.064-0.019-0.096-0.025-0.053-0.055-0.098-0.092-0.138l0 0c-0.010-0.012-0.014-0.026-0.025-0.038h-0.001s0-0.001-0.001-0.002l-1.607-1.6c-0.017-0.017-0.039-0.024-0.058-0.038-0.025-0.021-0.054-0.040-0.084-0.056l-0.003-0.001c-0.026-0.012-0.058-0.023-0.090-0.031l-0.003-0.001c-0.030-0.009-0.065-0.017-0.101-0.020l-0.002-0c-0.007-0-0.015-0-0.023-0-0.026 0-0.051 0.002-0.075 0.005l0.003-0c-0.036 0.005-0.069 0.009-0.104 0.021s-0.064 0.027-0.094 0.045c-0.020 0.011-0.043 0.015-0.061 0.029l-1.774 1.324-0.901-0.897 2.399-2.386 4.36 4.289-0.928 0.919zM15.979 18.394c-0.016-0.002-0.030 0.004-0.046 0.003-0.008-0-0.017-0.001-0.027-0.001-0.031 0-0.062 0.003-0.092 0.008l0.003-0c-0.070 0.011-0.132 0.035-0.187 0.070l0.002-0.001c-0.030 0.018-0.057 0.037-0.083 0.061-0.013 0.011-0.028 0.016-0.040 0.029l-4.698 5.146-4.328-4.256 2.833-2.818c0.096-0.097 0.156-0.23 0.156-0.377 0-0.295-0.239-0.534-0.534-0.534-0.001 0-0.001 0-0.002 0h0l-2.219 0.013 0.028-1.607 3.104 0.027c1.264 1.297 3.027 2.101 4.978 2.101 0.001 0 0.002 0 0.003 0h-0c0.438 0 0.864-0.046 1.28-0.122 0.040 0.032 0.080 0.064 0.129 0.085l2.41 0.96 0.152 0.758 0.178 0.886-3.003-0.427zM20.020 18.572l-0.313-1.558 1.446-1.080 0.946 1.257-2.080 1.381zM23.773 15.741l-0.837 0.785-0.931-1.236 0.831-0.637c0.155-0.119 0.351-0.168 0.543-0.143 0.193 0.027 0.364 0.128 0.48 0.284 0.088 0.117 0.141 0.265 0.141 0.426 0 0.206-0.087 0.391-0.226 0.521l-0 0z"></path>
<path fill="#212121" style="fill: var(--color1, #212121)" d="M13.602 18.544l-2.143-2.134c-0.096-0.096-0.229-0.155-0.376-0.155s-0.28 0.059-0.376 0.155l-2.143 2.133c-0.097 0.097-0.156 0.23-0.156 0.378s0.060 0.281 0.156 0.378l-0-0 2.142 2.134c0.096 0.096 0.229 0.156 0.376 0.156s0.28-0.059 0.376-0.156v0l2.143-2.134c0.097-0.097 0.157-0.23 0.157-0.378s-0.060-0.281-0.157-0.378l-0-0zM11.083 20.303l-1.387-1.381 1.386-1.381 1.387 1.381-1.387 1.381zM17.164 5.071l-0.258 1.036c0.071 0.018 1.738 0.452 1.738 2.149h1.067c0-2.017-1.666-2.965-2.547-3.184zM19.711 9.322h-1.067v1.066h1.067v-1.066z"></path>
</symbol>
<symbol id="icon-Client-1" viewBox="0 0 59 32">
<path fill="#afb1b8" style="fill: var(--color3, #afb1b8)" d="M24.348 8l2.438 2.307-4.525-0.003v11.196h11.826v-4.281l2.435 2.305v-11.525h-12.174zM33.98 16.949l-6.911-6.543h6.911v6.543zM31.834 19.863h-7.702v-7.529h0.544v7.019h7.158v0.51zM25.951 22.991l-0.285 0.586-0.285-0.586h-0.239l0.415 0.781v0.455h0.216v-0.455l0.415-0.781h-0.238zM26.309 24.228l0.1-0.288h0.479l0.101 0.288h0.224l-0.468-1.237h-0.193l-0.467 1.237h0.223zM26.648 23.254l0.179 0.513h-0.358l0.179-0.513zM27.781 23.737c-0.029 0.044-0.047 0.097-0.047 0.155 0 0.001 0 0.001 0 0.002v-0c0 0.104 0.037 0.189 0.11 0.254s0.171 0.097 0.294 0.097c0.122 0 0.228-0.033 0.316-0.099l0.070 0.082h0.239l-0.182-0.215c0.071-0.097 0.107-0.222 0.107-0.374h-0.179c0 0.083-0.017 0.159-0.051 0.226l-0.239-0.282 0.084-0.061c0.051-0.035 0.094-0.078 0.127-0.127l0.001-0.002c0.024-0.040 0.039-0.089 0.039-0.141 0-0.001 0-0.001 0-0.002v0c0-0.001 0-0.003 0-0.005 0-0.076-0.033-0.144-0.086-0.191l-0-0c-0.055-0.050-0.128-0.080-0.209-0.080-0.004 0-0.009 0-0.013 0l0.001-0c-0.099 0-0.179 0.029-0.238 0.085s-0.088 0.133-0.088 0.23c0 0.040 0.009 0.081 0.028 0.123 0.019 0.042 0.053 0.094 0.101 0.154-0.091 0.066-0.153 0.122-0.184 0.17zM28.339 24.010c-0.053 0.043-0.121 0.069-0.195 0.070h-0c-0.003 0-0.006 0-0.010 0-0.053 0-0.102-0.020-0.138-0.054l0 0c-0.034-0.034-0.055-0.080-0.055-0.132 0-0.002 0-0.005 0-0.007v0c0-0.066 0.034-0.125 0.102-0.177l0.026-0.019 0.27 0.319zM28.118 23.463c-0.058-0.072-0.088-0.131-0.088-0.179 0-0.041 0.012-0.075 0.036-0.103 0.022-0.025 0.055-0.041 0.091-0.041 0.002 0 0.004 0 0.005 0h-0c0.001-0 0.003-0 0.004-0 0.034 0 0.065 0.013 0.088 0.035l-0-0c0.024 0.023 0.037 0.050 0.037 0.082 0 0.001 0 0.003 0 0.004 0 0.046-0.020 0.087-0.052 0.115l-0 0-0.026 0.022-0.094 0.064zM30.13 24.134c0.085-0.074 0.134-0.177 0.146-0.309h-0.214c-0.011 0.088-0.038 0.151-0.081 0.189s-0.106 0.057-0.19 0.057c-0.092 0-0.162-0.035-0.211-0.105-0.047-0.070-0.071-0.172-0.071-0.306v-0.109c0.001-0.132 0.027-0.232 0.077-0.3s0.122-0.103 0.216-0.103c0.080 0 0.141 0.020 0.183 0.059s0.068 0.103 0.078 0.192h0.214c-0.014-0.135-0.062-0.24-0.145-0.314s-0.193-0.111-0.329-0.111c-0.101 0-0.191 0.024-0.268 0.072-0.078 0.050-0.139 0.12-0.176 0.202l-0.001 0.003c-0.039 0.087-0.062 0.188-0.062 0.294 0 0.005 0 0.010 0 0.015v-0.001 0.115c0.002 0.114 0.023 0.214 0.064 0.3s0.099 0.152 0.173 0.199c0.075 0.047 0.162 0.070 0.261 0.070 0.141 0 0.254-0.037 0.339-0.11zM31.393 23.961c0.042-0.091 0.063-0.198 0.063-0.319v-0.069c0-0.004 0-0.009 0-0.013 0-0.11-0.024-0.214-0.066-0.308l0.002 0.005c-0.039-0.087-0.101-0.158-0.179-0.208l-0.002-0.001c-0.078-0.049-0.167-0.073-0.268-0.073s-0.19 0.024-0.268 0.074c-0.078 0.049-0.138 0.119-0.181 0.211-0.040 0.090-0.064 0.194-0.064 0.304 0 0.005 0 0.011 0 0.016v-0.001 0.070c0.001 0.118 0.022 0.223 0.064 0.313s0.104 0.161 0.182 0.21c0.079 0.049 0.168 0.073 0.268 0.073 0.102 0 0.191-0.024 0.269-0.073s0.138-0.12 0.18-0.211zM31.163 23.262c0.052 0.073 0.078 0.178 0.078 0.315v0.064c0 0.139-0.026 0.245-0.077 0.318s-0.124 0.109-0.219 0.109c-0.003 0-0.006 0-0.009 0-0.087 0-0.165-0.044-0.211-0.111l-0.001-0.001c-0.053-0.074-0.079-0.179-0.079-0.315v-0.071c0.001-0.133 0.028-0.236 0.080-0.308 0.047-0.067 0.123-0.11 0.209-0.11 0.003 0 0.006 0 0.010 0h-0c0.095 0 0.168 0.037 0.22 0.11z"></path>
</symbol>
<symbol id="icon-Client-2" viewBox="0 0 59 32">
<path fill="#afb1b8" style="fill: var(--color3, #afb1b8)" d="M28.561 7.629h-0.048c-0.061-0.003-0.137-0.006-0.214-0.008l-0.005-0h-0.158c-0.138 0-0.279 0.003-0.419 0.010-0.005-0-0.010-0.001-0.016-0.001s-0.011 0-0.017 0.001l0.001-0c-1.343 0.078-2.59 0.414-3.716 0.959l0.059-0.026-0.151 0.072v7.702l0.352-0.12c0.309-0.106 0.638-0.202 0.978-0.29 0.841-0.225 1.81-0.361 2.808-0.374l0.008-0v1.012c-0.126 0.001-0.248 0.004-0.37 0.010h-0.029c-0.791 0.044-1.531 0.163-2.245 0.35l0.078-0.017c-0.98 0.249-1.839 0.594-2.638 1.035l0.057-0.029v-9.877c0.78-0.463 1.681-0.841 2.636-1.086l0.072-0.016c0.765-0.206 1.643-0.325 2.55-0.329h0.151c0.178 0.005 0.351 0.013 0.514 0.025 0.429 0.030 0.854 0.098 1.271 0.202v0.996c-0.355-0.087-0.776-0.153-1.206-0.184l-0.026-0.002-0.025-0.002c-0.073-0.008-0.161-0.013-0.249-0.015l-0.003-0zM30.314 8.647c0.221 0.017 0.449 0.025 0.681 0.025 0.955-0.004 1.879-0.129 2.759-0.361l-0.076 0.017c0.98-0.25 1.839-0.595 2.637-1.035l-0.057 0.029v9.701c-0.78 0.463-1.681 0.841-2.636 1.086l-0.072 0.016c-0.765 0.205-1.644 0.325-2.55 0.328h-0.002c-0.019 0-0.041 0-0.063 0-0.665 0-1.311-0.083-1.927-0.24l0.054 0.012v-9.764c0.15 0.035 0.304 0.066 0.46 0.093 0.257 0.043 0.528 0.075 0.792 0.095zM35.251 8.722l-0.352 0.119c-0.323 0.109-0.65 0.206-0.978 0.293-0.876 0.235-1.883 0.371-2.922 0.375h-0.002c-0.23 0-0.441-0.006-0.645-0.019l-0.281-0.018v7.922l0.241 0.021c0.223 0.020 0.454 0.030 0.686 0.030 0.82-0.004 1.613-0.112 2.368-0.313l-0.065 0.015c0.69-0.175 1.289-0.397 1.857-0.672l-0.057 0.025 0.151-0.072v-7.704z"></path>
<path fill="#afb1b8" style="fill: var(--color3, #afb1b8)" d="M23.561 21.291c-0.094-0.098-0.227-0.159-0.373-0.159-0.006 0-0.013 0-0.019 0l0.001-0c-0.002-0-0.005-0-0.008-0-0.079 0-0.154 0.016-0.222 0.044l0.004-0.001c-0.134 0.054-0.237 0.158-0.288 0.289l-0.001 0.003c-0.028 0.070-0.041 0.144-0.040 0.218v1.32c-0.003 0.093 0.015 0.185 0.052 0.271 0.031 0.068 0.076 0.128 0.132 0.177 0.053 0.044 0.114 0.077 0.181 0.094 0.064 0.018 0.131 0.027 0.197 0.027 0.073 0.001 0.146-0.015 0.213-0.046 0.198-0.088 0.334-0.283 0.334-0.51v-0.148h-0.345v0.118c0 0.002 0 0.005 0 0.008 0 0.039-0.007 0.077-0.021 0.112l0.001-0.002c-0.012 0.029-0.029 0.054-0.050 0.074l-0 0c-0.040 0.031-0.090 0.050-0.144 0.050h-0c-0.006 0.001-0.013 0.001-0.020 0.001-0.058 0-0.109-0.028-0.141-0.072l-0-0c-0.029-0.047-0.046-0.103-0.046-0.163 0-0.005 0-0.009 0-0.014l-0 0.001v-1.231c-0.002-0.068 0.013-0.136 0.042-0.197 0.032-0.049 0.086-0.081 0.148-0.081 0.007 0 0.014 0 0.021 0.001l-0.001-0c0.002-0 0.004-0 0.007-0 0.060 0 0.114 0.029 0.147 0.074l0 0c0.036 0.047 0.057 0.106 0.057 0.17 0 0.003-0 0.005-0 0.008v-0 0.114h0.342v-0.135c0-0.002 0-0.004 0-0.006 0-0.081-0.015-0.158-0.044-0.229l0.001 0.004c-0.027-0.072-0.066-0.134-0.116-0.186l0 0zM25.61 21.277c-0.105-0.090-0.242-0.144-0.392-0.145h-0c-0.070 0-0.14 0.013-0.206 0.037-0.142 0.051-0.255 0.156-0.315 0.289l-0.001 0.003c-0.035 0.080-0.052 0.168-0.050 0.256v1.265c-0.002 0.089 0.015 0.177 0.050 0.259 0.031 0.068 0.077 0.128 0.134 0.177 0.053 0.049 0.115 0.087 0.182 0.111 0.066 0.024 0.136 0.037 0.206 0.037 0.151-0 0.288-0.057 0.393-0.149l-0.001 0.001c0.055-0.049 0.099-0.11 0.13-0.177 0.035-0.082 0.053-0.17 0.050-0.259v-1.266c0-0.003 0-0.008 0-0.012 0-0.088-0.018-0.172-0.052-0.247l0.002 0.004c-0.032-0.072-0.076-0.134-0.13-0.185l-0-0zM25.449 22.982c0.001 0.006 0.001 0.013 0.001 0.019 0 0.064-0.027 0.122-0.069 0.164l-0 0c-0.044 0.037-0.1 0.059-0.162 0.059s-0.119-0.022-0.163-0.059l0 0c-0.043-0.041-0.069-0.099-0.069-0.163 0-0.007 0-0.014 0.001-0.021l-0 0.001v-1.266c-0.001-0.006-0.001-0.013-0.001-0.020 0-0.064 0.027-0.122 0.069-0.163l0-0c0.044-0.037 0.1-0.059 0.162-0.059s0.119 0.022 0.163 0.059l-0-0c0.043 0.041 0.069 0.099 0.069 0.163 0 0.007-0 0.014-0.001 0.021l0-0.001v1.266zM28.302 23.548v-2.397h-0.331l-0.436 1.269h-0.006l-0.439-1.268h-0.328v2.396h0.342v-1.457h0.006l0.335 1.030h0.171l0.338-1.030h0.006v1.457h0.342zM30.246 21.32c-0.053-0.059-0.119-0.104-0.193-0.131-0.070-0.024-0.151-0.037-0.235-0.037-0.005 0-0.009 0-0.014 0h-0.508v2.397h0.341v-0.936h0.176c0.107 0.005 0.213-0.018 0.308-0.065 0.078-0.044 0.142-0.106 0.186-0.181l0.001-0.002c0.039-0.064 0.066-0.135 0.078-0.209 0.012-0.075 0.019-0.162 0.019-0.251 0-0.008-0-0.015-0-0.023v0.001c0.003-0.115-0.008-0.23-0.033-0.342-0.024-0.086-0.068-0.16-0.126-0.22l0 0zM30.070 22.050c-0.002 0.046-0.013 0.088-0.032 0.127l0.001-0.002c-0.020 0.037-0.050 0.066-0.087 0.083l-0.001 0c-0.042 0.019-0.091 0.031-0.143 0.031-0.006 0-0.012-0-0.019-0l0.001 0h-0.156v-0.815h0.176c0.005-0 0.011-0 0.016-0 0.050 0 0.097 0.011 0.14 0.031l-0.002-0.001c0.035 0.020 0.063 0.051 0.079 0.087l0 0.001c0.019 0.042 0.029 0.088 0.030 0.134v0.159c0 0.056 0.003 0.113 0 0.165h-0.003zM31.864 21.151h-0.28l-0.528 2.397h0.342l0.1-0.515h0.465l0.101 0.515h0.341l-0.541-2.397zM31.549 22.706l0.168-0.869h0.006l0.167 0.869h-0.341zM34.070 22.595h-0.006l-0.515-1.443h-0.328v2.397h0.341v-1.441h0.007l0.522 1.441h0.321v-2.396h-0.341v1.443zM36.156 21.151l-0.275 0.953h-0.007l-0.274-0.953h-0.362l0.469 1.384v1.013h0.342v-1.013l0.469-1.383h-0.361zM22.609 24.224h0.165v0.462h0.112v-0.462h0.163v-0.095h-0.44v0.095zM23.992 24.129l-0.216 0.557h0.119l0.046-0.127h0.222l0.047 0.127h0.122l-0.221-0.557h-0.119zM23.975 24.466l0.075-0.206 0.075 0.206h-0.151zM25.359 24.481h0.129v0.072c-0.036 0.029-0.082 0.047-0.132 0.047h-0c-0.002 0-0.005 0-0.008 0-0.045 0-0.084-0.021-0.11-0.053l-0-0c-0.026-0.037-0.041-0.083-0.041-0.133 0-0.004 0-0.009 0-0.013l-0 0.001c0-0.124 0.054-0.186 0.16-0.186 0.004-0 0.008-0.001 0.012-0.001 0.055 0 0.101 0.038 0.114 0.088l0 0.001 0.11-0.021c-0.024-0.109-0.102-0.163-0.236-0.163-0.002-0-0.005-0-0.008-0-0.072 0-0.137 0.027-0.187 0.072l0-0c-0.050 0.049-0.081 0.118-0.081 0.193 0 0.007 0 0.015 0.001 0.022l-0-0.001c-0 0.004-0 0.008-0 0.013 0 0.075 0.027 0.143 0.072 0.196l-0-0c0.049 0.051 0.118 0.082 0.194 0.082 0.006 0 0.012-0 0.018-0.001l-0.001 0c0.003 0 0.006 0 0.009 0 0.087 0 0.167-0.034 0.227-0.089l-0 0v-0.219h-0.241v0.094zM26.756 24.129h-0.113v0.557h0.39v-0.095h-0.277v-0.462zM27.936 24.129h-0.112v0.557h0.112v-0.557zM29.091 24.501l-0.228-0.371h-0.109v0.557h0.104v-0.363l0.224 0.363h0.112v-0.557h-0.103v0.372zM30.135 24.441h0.277v-0.095h-0.277v-0.122h0.298v-0.095h-0.411v0.557h0.422v-0.095h-0.31v-0.151zM32.665 24.349h-0.219v-0.219h-0.111v0.556h0.111v-0.243h0.219v0.243h0.112v-0.557h-0.112v0.219zM33.715 24.441h0.278v-0.095h-0.278v-0.122h0.299v-0.095h-0.41v0.557h0.422v-0.095h-0.31v-0.151zM35.138 24.441c0.097-0.015 0.146-0.066 0.146-0.155 0.001-0.005 0.001-0.010 0.001-0.016 0-0.044-0.022-0.083-0.055-0.107l-0-0c-0.041-0.021-0.090-0.033-0.141-0.033-0.008 0-0.015 0-0.023 0.001l0.001-0h-0.236v0.556h0.112v-0.233h0.022c0.003-0 0.006-0 0.009-0 0.022 0 0.043 0.005 0.062 0.013l-0.001-0c0.016 0.010 0.030 0.024 0.040 0.041l0.121 0.177h0.134l-0.068-0.109c-0.031-0.054-0.072-0.099-0.122-0.133l-0.001-0.001zM35.026 24.364h-0.082v-0.139h0.088c0.007-0.001 0.015-0.001 0.024-0.001 0.032 0 0.063 0.005 0.092 0.015l-0.002-0.001c0.015 0.014 0.024 0.033 0.024 0.055 0 0.012-0.003 0.024-0.008 0.034l0-0c-0.005 0.010-0.012 0.018-0.021 0.024l-0 0c-0.028 0.009-0.060 0.014-0.093 0.014-0.007 0-0.015-0-0.022-0.001l0.001 0zM36.212 24.441h0.277v-0.095h-0.277v-0.122h0.299v-0.095h-0.412v0.557h0.422v-0.095h-0.31v-0.151z"></path>
</symbol>
<symbol id="icon-Client-3" viewBox="0 0 59 32">
<path fill="#afb1b8" style="fill: var(--color3, #afb1b8)" d="M23.793 22.644c0.006 0 0.011 0.001 0.016 0.003s0.010 0.005 0.014 0.008l-0-0 0.076 0.072c-0.059 0.059-0.132 0.106-0.214 0.138-0.084 0.031-0.181 0.050-0.283 0.050-0.007 0-0.014-0-0.021-0l0.001 0c-0.097 0.002-0.194-0.014-0.284-0.046-0.083-0.030-0.155-0.074-0.215-0.13l0 0c-0.058-0.055-0.105-0.122-0.137-0.197l-0.001-0.004c-0.031-0.074-0.049-0.16-0.049-0.251 0-0.003 0-0.005 0-0.008v0c-0-0.004-0-0.009-0-0.013 0-0.177 0.077-0.336 0.199-0.446l0.001-0c0.065-0.057 0.142-0.101 0.227-0.131 0.094-0.031 0.193-0.047 0.293-0.046 0.005-0 0.012-0 0.018-0 0.091 0 0.178 0.015 0.259 0.044l-0.006-0.002c0.075 0.029 0.144 0.068 0.204 0.117l-0.064 0.077c-0.005 0.006-0.010 0.010-0.016 0.014l-0 0c-0.006 0.004-0.014 0.006-0.022 0.006-0.001 0-0.002-0-0.003-0h0c-0.010-0-0.020-0.003-0.028-0.008l0 0-0.034-0.021-0.048-0.026c-0.043-0.021-0.094-0.037-0.146-0.046l-0.003-0c-0.032-0.005-0.068-0.008-0.105-0.008-0.003 0-0.006 0-0.009 0h0c-0.002-0-0.004-0-0.007-0-0.073 0-0.143 0.013-0.208 0.036l0.004-0.001c-0.064 0.022-0.119 0.056-0.166 0.098l0-0c-0.047 0.045-0.083 0.097-0.107 0.155-0.025 0.058-0.039 0.127-0.039 0.198 0 0.002 0 0.004 0 0.007v-0c-0 0.002-0 0.005-0 0.008 0 0.072 0.014 0.141 0.040 0.204l-0.001-0.004c0.023 0.057 0.059 0.109 0.105 0.154 0.043 0.042 0.097 0.075 0.158 0.096 0.062 0.022 0.128 0.034 0.195 0.033 0.039 0 0.078-0.002 0.116-0.007 0.097-0.010 0.183-0.049 0.251-0.107l-0.001 0.001c0.010-0.008 0.022-0.013 0.036-0.013h0zM25.984 22.28c0 0.002 0 0.005 0 0.008 0 0.090-0.019 0.175-0.053 0.253l0.002-0.004c-0.034 0.079-0.082 0.145-0.142 0.198l-0.001 0c-0.063 0.056-0.138 0.1-0.22 0.129l-0.005 0.001c-0.086 0.029-0.185 0.046-0.288 0.046s-0.202-0.017-0.295-0.048l0.006 0.002c-0.086-0.030-0.16-0.075-0.223-0.131l0.001 0.001c-0.061-0.055-0.11-0.122-0.143-0.197l-0.001-0.004c-0.032-0.076-0.051-0.164-0.051-0.257s0.019-0.181 0.053-0.261l-0.002 0.004c0.032-0.075 0.081-0.144 0.144-0.202 0.063-0.055 0.139-0.098 0.223-0.126 0.086-0.030 0.185-0.047 0.288-0.047s0.202 0.017 0.295 0.049l-0.006-0.002c0.084 0.030 0.16 0.074 0.224 0.131s0.111 0.125 0.143 0.199c0.035 0.083 0.053 0.17 0.051 0.258zM25.785 22.28c0-0.003 0-0.007 0-0.011 0-0.070-0.013-0.137-0.038-0.199l0.001 0.004c-0.046-0.119-0.141-0.21-0.259-0.25l-0.003-0.001c-0.063-0.021-0.135-0.034-0.21-0.034s-0.147 0.012-0.214 0.035l0.005-0.001c-0.062 0.022-0.116 0.055-0.161 0.098l0-0c-0.044 0.042-0.079 0.093-0.102 0.151l-0.001 0.003c-0.023 0.061-0.036 0.132-0.036 0.206s0.013 0.145 0.038 0.21l-0.001-0.004c0.046 0.119 0.141 0.21 0.26 0.25l0.003 0.001c0.135 0.044 0.284 0.044 0.419 0 0.061-0.021 0.115-0.054 0.16-0.096 0.046-0.045 0.080-0.097 0.102-0.154 0.025-0.066 0.038-0.136 0.036-0.206zM27.479 22.496l0.020 0.046c0.008-0.016 0.014-0.031 0.022-0.046 0.008-0.018 0.017-0.033 0.026-0.047l-0.001 0.002 0.485-0.766c0.010-0.013 0.018-0.022 0.028-0.024s0.021-0.004 0.033-0.004c0.002 0 0.005 0 0.007 0h0.143v1.245h-0.17v-0.954c-0-0.006-0.001-0.014-0.001-0.022s0-0.015 0.001-0.023l-0 0.001-0.488 0.776c-0.007 0.012-0.016 0.022-0.028 0.028l-0 0c-0.012 0.007-0.026 0.010-0.041 0.010-0 0-0.001 0-0.001 0h-0.027c-0 0-0.001 0-0.001 0-0.015 0-0.029-0.004-0.041-0.011l0 0c-0.012-0.007-0.022-0.016-0.028-0.028l-0-0-0.502-0.781v0.999h-0.164v-1.242h0.143c0.002-0 0.004-0 0.007-0 0.012 0 0.023 0.002 0.034 0.005l-0.001-0c0.012 0.005 0.021 0.014 0.026 0.024l0.495 0.766c0.009 0.013 0.017 0.027 0.024 0.043l0.001 0.002zM29.302 22.434v0.466h-0.189v-1.243h0.423c0.080-0.001 0.159 0.008 0.236 0.027 0.061 0.015 0.118 0.042 0.167 0.078 0.040 0.032 0.073 0.073 0.094 0.12l0.001 0.002c0.023 0.051 0.033 0.105 0.032 0.159 0 0.002 0 0.005 0 0.008 0 0.112-0.054 0.212-0.137 0.275l-0.001 0.001c-0.049 0.037-0.106 0.065-0.168 0.082-0.064 0.018-0.137 0.029-0.213 0.029-0.005 0-0.011-0-0.016-0l-0.229-0.003zM29.302 22.3h0.23c0.050 0.001 0.099-0.006 0.147-0.019 0.041-0.012 0.076-0.030 0.107-0.054l-0.001 0.001c0.053-0.044 0.087-0.11 0.087-0.184 0-0.001 0-0.002-0-0.003v0c0-0.004 0-0.009 0-0.013 0-0.032-0.007-0.062-0.020-0.089l0.001 0.001c-0.016-0.034-0.038-0.062-0.066-0.085l-0-0c-0.063-0.043-0.141-0.068-0.225-0.068-0.011 0-0.021 0-0.031 0.001l0.001-0h-0.23v0.512zM31.851 22.902h-0.15c-0.001 0-0.002 0-0.003 0-0.014 0-0.028-0.004-0.039-0.012l0 0c-0.011-0.007-0.019-0.017-0.025-0.028l-0-0-0.129-0.301h-0.648l-0.134 0.301c-0.012 0.024-0.036 0.040-0.064 0.040-0.001 0-0.001 0-0.002-0h-0.15l0.569-1.245h0.197l0.577 1.245zM30.912 22.439h0.535l-0.225-0.507c-0.017-0.038-0.031-0.077-0.043-0.117l-0.022 0.065c-0.007 0.020-0.014 0.038-0.021 0.053l-0.224 0.506zM32.671 21.663c0.011 0.005 0.021 0.013 0.028 0.022l0.83 0.939v-0.967h0.17v1.245h-0.095c-0.001 0-0.001 0-0.002 0-0.013 0-0.026-0.003-0.037-0.008l0.001 0c-0.012-0.006-0.022-0.014-0.031-0.023l-0-0-0.829-0.938c0 0.006 0.001 0.014 0.001 0.021s-0 0.015-0.001 0.022l0-0.001v0.925h-0.17v-1.245h0.101c0.011 0 0.023 0.002 0.034 0.006zM35.097 22.407v0.494h-0.19v-0.494l-0.525-0.75h0.17c0.001-0 0.003-0 0.004-0 0.014 0 0.026 0.004 0.037 0.011l-0-0c0.010 0.008 0.019 0.018 0.026 0.028l0.328 0.484c0.013 0.021 0.025 0.040 0.034 0.058s0.017 0.035 0.024 0.053l0.024-0.054c0.009-0.019 0.020-0.038 0.032-0.057l0.323-0.487c0.007-0.010 0.015-0.019 0.024-0.026l0-0c0.010-0.008 0.023-0.012 0.037-0.012 0.001 0 0.002 0 0.004 0h0.171l-0.525 0.753zM27.385 19.567c0.083 0.009 0.166 0.016 0.25 0.023 1.28-0.497 2.362-1.311 3.112-2.34s1.134-2.227 1.105-3.445l-1.41-1.225c0.287 1.296 0.152 2.637-0.387 3.871s-1.464 2.313-2.67 3.117z"></path>
<path fill="#afb1b8" style="fill: var(--color3, #afb1b8)" d="M26.881 19.51l0.038 0.007c1.288-0.801 2.271-1.919 2.819-3.21s0.64-2.695 0.261-4.031l-2.009-1.745c0.812 1.434 1.139 3.040 0.943 4.63s-0.908 3.098-2.052 4.35zM33.693 15.244c-0.341 1.338-1.17 2.544-2.363 3.441-0.326 0.248-0.694 0.481-1.081 0.68l-0.042 0.020c0.972-0.248 1.865-0.687 2.61-1.282s1.324-1.332 1.69-2.152l-0.815-0.707z"></path>
<path fill="#afb1b8" style="fill: var(--color3, #afb1b8)" d="M33.374 15.047l-1.16-1.008c-0.022 1.149-0.398 2.272-1.089 3.251s-1.671 1.782-2.838 2.321h0.006c0.26 0 0.52-0.014 0.778-0.040 1.091-0.387 2.055-1.003 2.806-1.792s1.265-1.728 1.497-2.732zM27.049 9.795l-1.384-1.203c-1.237 0.415-2.301 1.145-3.052 2.095s-1.155 2.074-1.159 3.226c0.005 1.273 0.498 2.509 1.402 3.511s2.166 1.714 3.587 2.022c1.269-1.343 2.012-3.003 2.121-4.738s-0.422-3.456-1.515-4.911zM36.57 14.862c-0.005-1.51-0.698-2.958-1.927-4.026s-2.895-1.67-4.634-1.674c-0.004 0-0.010 0-0.015 0-0.835 0-1.638 0.139-2.386 0.395l0.052-0.015 8.471 7.361c0.276-0.6 0.437-1.301 0.438-2.040v-0z"></path>
</symbol>
<symbol id="icon-Client-4" viewBox="0 0 59 32">
<path fill="#2196f3" style="fill: var(--color2, #2196f3)" d="M19.529 12.905h-0.001c-0.834 0-1.51 0.601-1.51 1.342v0.001c0 0.741 0.676 1.342 1.51 1.342h0.001c0.834 0 1.51-0.601 1.51-1.342v-0.001c0-0.742-0.676-1.343-1.51-1.343zM30.677 12.477c-0.002-1.030-0.464-2.017-1.283-2.745s-1.929-1.138-3.088-1.141c-1.159 0.002-2.27 0.412-3.089 1.14s-1.281 1.715-1.283 2.745v5.678s8.742-0.865 8.743-5.677v-0.001zM14.957 20.017c0.002 0.717 0.323 1.403 0.893 1.91s1.342 0.792 2.148 0.794c0.806-0.002 1.578-0.288 2.148-0.794s0.891-1.193 0.893-1.909v-3.951s-6.083 0.603-6.083 3.95zM17.998 20.725c-0.158 0-0.311-0.041-0.442-0.119-0.127-0.075-0.228-0.183-0.291-0.313l-0.002-0.004c-0.038-0.079-0.060-0.172-0.060-0.27 0-0.049 0.006-0.097 0.016-0.143l-0.001 0.004c0.031-0.137 0.106-0.264 0.218-0.362s0.253-0.167 0.408-0.194c0.047-0.009 0.101-0.014 0.156-0.014 0.109 0 0.214 0.020 0.311 0.056l-0.006-0.002c0.145 0.054 0.27 0.144 0.357 0.261s0.134 0.253 0.134 0.393c0 0.093-0.020 0.186-0.060 0.272-0.043 0.090-0.101 0.167-0.172 0.23l-0.001 0.001c-0.074 0.066-0.162 0.118-0.259 0.154-0.091 0.034-0.195 0.054-0.305 0.054-0 0-0 0-0.001 0h0v-0.003zM24.145 20.335h-0.587v0.606h-0.306v-1.484h0.966v0.248h-0.661v0.383h0.587v0.247zM25.615 20.233c0 0.146-0.026 0.274-0.077 0.384s-0.126 0.195-0.223 0.255c-0.091 0.056-0.201 0.090-0.319 0.090-0.004 0-0.008-0-0.012-0h0.001c-0.123 0-0.233-0.030-0.329-0.089-0.097-0.061-0.174-0.147-0.222-0.249l-0.002-0.004c-0.051-0.107-0.080-0.233-0.080-0.366 0-0.005 0-0.009 0-0.014v0.001-0.073c0-0.146 0.026-0.275 0.078-0.385s0.127-0.197 0.223-0.256c0.096-0.060 0.206-0.090 0.33-0.090s0.233 0.030 0.329 0.090c0.096 0.059 0.171 0.144 0.223 0.256s0.079 0.239 0.079 0.384v0.066zM25.305 20.166c0-0.155-0.028-0.274-0.083-0.355-0.050-0.074-0.133-0.121-0.227-0.121-0.004 0-0.008 0-0.013 0l0.001-0c-0.003-0-0.008-0-0.012-0-0.094 0-0.176 0.047-0.225 0.12l-0.001 0.001c-0.056 0.080-0.084 0.196-0.085 0.351v0.072c0 0.151 0.028 0.269 0.083 0.352s0.136 0.125 0.241 0.125c0.004 0 0.008 0 0.012 0 0.093 0 0.175-0.047 0.224-0.119l0.001-0.001c0.055-0.081 0.083-0.198 0.083-0.353v-0.072zM26.606 20.552c0-0.003 0-0.006 0-0.009 0-0.050-0.024-0.095-0.061-0.123l-0-0c-0.041-0.031-0.114-0.064-0.22-0.098-0.098-0.030-0.181-0.065-0.26-0.106l0.009 0.004c-0.169-0.091-0.253-0.214-0.253-0.368 0-0.080 0.023-0.152 0.067-0.214 0.046-0.063 0.111-0.112 0.195-0.148s0.18-0.053 0.285-0.053c0.106 0 0.2 0.019 0.283 0.058s0.147 0.092 0.192 0.162c0.046 0.070 0.070 0.15 0.070 0.238h-0.306c0-0.068-0.021-0.121-0.064-0.158-0.043-0.038-0.103-0.057-0.18-0.057-0.075 0-0.133 0.016-0.174 0.048-0.038 0.027-0.062 0.071-0.062 0.121 0 0.001 0 0.002 0 0.004v-0c0 0.048 0.024 0.089 0.072 0.121s0.121 0.063 0.215 0.091c0.174 0.052 0.301 0.117 0.38 0.195s0.119 0.174 0.119 0.289c0 0.128-0.049 0.23-0.146 0.303s-0.227 0.109-0.392 0.109c-0.114 0-0.218-0.021-0.312-0.063-0.088-0.037-0.161-0.096-0.214-0.17l-0.001-0.002c-0.046-0.069-0.073-0.153-0.073-0.243 0-0.003 0-0.007 0-0.010v0h0.306c0 0.163 0.098 0.246 0.294 0.246 0.073 0 0.129-0.015 0.17-0.044 0.037-0.027 0.061-0.070 0.061-0.118 0-0.002-0-0.004-0-0.006v0zM28.238 19.705h-0.454v1.236h-0.306v-1.236h-0.448v-0.248h1.208v0.248zM29.305 20.298h-0.587v0.398h0.689v0.246h-0.994v-1.484h0.993v0.248h-0.687v0.354h0.587v0.239zM30.136 20.398h-0.243v0.543h-0.306v-1.484h0.551c0.175 0 0.311 0.039 0.406 0.117s0.143 0.189 0.143 0.331c0 0.101-0.022 0.186-0.066 0.254-0.049 0.071-0.117 0.127-0.196 0.16l-0.003 0.001 0.321 0.606v0.014h-0.328l-0.278-0.543zM29.893 20.151h0.247c0.077 0 0.136-0.019 0.178-0.058 0.039-0.038 0.063-0.092 0.063-0.151 0-0.004-0-0.008-0-0.012l0 0.001c0-0.070-0.020-0.125-0.060-0.165s-0.1-0.060-0.183-0.060h-0.246v0.445zM31.745 20.419v0.523h-0.306v-1.484h0.579c0.111 0 0.209 0.021 0.294 0.061s0.15 0.099 0.196 0.174c0.045 0.075 0.068 0.16 0.068 0.256 0 0.145-0.050 0.26-0.15 0.344s-0.237 0.126-0.413 0.126h-0.268zM31.745 20.171h0.273c0.081 0 0.143-0.019 0.184-0.057 0.043-0.038 0.064-0.093 0.064-0.163 0-0.003 0-0.007 0-0.011 0-0.064-0.024-0.122-0.064-0.166l0 0c-0.043-0.045-0.102-0.068-0.177-0.069h-0.28v0.466zM33.679 20.298h-0.587v0.398h0.689v0.246h-0.994v-1.484h0.993v0.248h-0.687v0.354h0.587v0.239zM35.098 19.705h-0.455v1.236h-0.306v-1.236h-0.448v-0.248h1.209v0.248zM36.166 20.298h-0.587v0.398h0.689v0.246h-0.994v-1.484h0.992v0.248h-0.687v0.354h0.587v0.239zM36.996 20.398h-0.243v0.543h-0.306v-1.484h0.551c0.175 0 0.31 0.039 0.406 0.117s0.143 0.189 0.143 0.331c0 0.101-0.022 0.186-0.066 0.254-0.049 0.071-0.117 0.127-0.196 0.16l-0.003 0.001 0.321 0.606v0.014h-0.328l-0.278-0.543zM36.753 20.151h0.247c0.077 0 0.136-0.019 0.178-0.058 0.042-0.040 0.063-0.094 0.063-0.162 0-0.070-0.020-0.125-0.060-0.165s-0.1-0.060-0.182-0.060h-0.246v0.445zM38.549 20.552c0-0.003 0-0.006 0-0.009 0-0.050-0.024-0.095-0.061-0.124l-0-0c-0.041-0.031-0.114-0.064-0.22-0.098-0.098-0.030-0.181-0.065-0.26-0.106l0.009 0.004c-0.169-0.091-0.253-0.214-0.253-0.368 0-0.080 0.022-0.152 0.067-0.214 0.046-0.063 0.111-0.112 0.195-0.148s0.18-0.053 0.285-0.053c0.106 0 0.2 0.019 0.283 0.058s0.147 0.092 0.192 0.162c0.046 0.070 0.070 0.15 0.070 0.238h-0.306c0-0.068-0.022-0.121-0.064-0.158-0.043-0.038-0.103-0.057-0.18-0.057-0.075 0-0.133 0.016-0.174 0.048-0.038 0.027-0.062 0.071-0.062 0.12 0 0.001 0 0.003 0 0.004v-0c0 0.048 0.024 0.089 0.072 0.121s0.121 0.063 0.215 0.091c0.174 0.052 0.301 0.117 0.38 0.195s0.119 0.174 0.119 0.289c0 0.128-0.049 0.23-0.146 0.303s-0.228 0.109-0.392 0.109c-0.114 0-0.218-0.021-0.312-0.063-0.088-0.038-0.161-0.096-0.214-0.17l-0.001-0.002c-0.046-0.069-0.074-0.153-0.074-0.244 0-0.003 0-0.006 0-0.010v0h0.307c0 0.163 0.098 0.246 0.294 0.246 0.073 0 0.129-0.015 0.17-0.044 0.037-0.027 0.061-0.070 0.061-0.119 0-0.002-0-0.004-0-0.006v0z"></path>
</symbol>
<symbol id="icon-Client-5" viewBox="0 0 59 32">
<path fill="#afb1b8" style="fill: var(--color3, #afb1b8)" d="M20.437 21.125c0.085 0.096 0.13 0.216 0.128 0.34 0 0.008 0.001 0.017 0.001 0.026 0 0.076-0.017 0.148-0.048 0.212l0.001-0.003c-0.037 0.077-0.088 0.142-0.151 0.193l-0.001 0.001c-0.144 0.099-0.322 0.159-0.514 0.159-0.021 0-0.042-0.001-0.063-0.002l0.003 0h-1.010v-2.153h0.989c0.017-0.001 0.038-0.002 0.058-0.002 0.182 0 0.351 0.054 0.493 0.147l-0.003-0.002c0.064 0.049 0.115 0.111 0.148 0.181s0.048 0.146 0.044 0.223c0.006 0.118-0.035 0.235-0.115 0.329-0.077 0.086-0.183 0.145-0.301 0.168 0.134 0.022 0.255 0.088 0.341 0.184zM19.253 20.8h0.423c0.096 0.006 0.191-0.019 0.269-0.072 0.031-0.026 0.055-0.058 0.071-0.094l0.001-0.002c0.012-0.028 0.020-0.060 0.020-0.094 0-0.007-0-0.014-0.001-0.021l0 0.001c0-0.005 0.001-0.012 0.001-0.018 0-0.035-0.007-0.068-0.020-0.098l0.001 0.002c-0.017-0.038-0.041-0.070-0.070-0.096l-0-0c-0.068-0.046-0.152-0.074-0.243-0.074-0.012 0-0.024 0-0.035 0.001l0.002-0h-0.416v0.565zM19.986 21.626c0.033-0.026 0.059-0.059 0.077-0.097l0.001-0.002c0.014-0.030 0.023-0.066 0.023-0.103 0-0.006-0-0.012-0.001-0.018l0 0.001c0-0.005 0-0.010 0-0.016 0-0.038-0.009-0.075-0.024-0.108l0.001 0.002c-0.019-0.040-0.046-0.073-0.079-0.099l-0.001-0c-0.073-0.049-0.162-0.079-0.259-0.079-0.010 0-0.020 0-0.030 0.001l0.001-0h-0.443v0.592h0.449c0.101 0.005 0.201-0.021 0.284-0.075zM22.459 22.051l-0.55-0.842h-0.207v0.842h-0.473v-2.153h0.896c0.019-0.001 0.041-0.002 0.064-0.002 0.211 0 0.405 0.070 0.562 0.187l-0.002-0.002c0.125 0.117 0.201 0.271 0.213 0.434 0.001 0.014 0.002 0.029 0.002 0.045 0 0.157-0.056 0.301-0.149 0.413l0.001-0.001c-0.111 0.114-0.258 0.193-0.423 0.218l-0.004 0 0.586 0.861h-0.515zM21.702 20.916h0.387c0.269 0 0.403-0.109 0.403-0.326 0-0.005 0-0.011 0-0.017 0-0.041-0.008-0.080-0.023-0.115l0.001 0.002c-0.018-0.044-0.044-0.081-0.077-0.111l-0-0c-0.074-0.055-0.166-0.089-0.267-0.089-0.013 0-0.026 0.001-0.039 0.002l0.002-0h-0.392l0.005 0.655zM25.047 21.617h-0.943l-0.167 0.434h-0.496l0.866-2.129h0.537l0.863 2.129h-0.496l-0.163-0.433zM24.921 21.291l-0.345-0.909-0.345 0.909h0.689zM28.286 22.051h-0.47l-1.054-1.464v1.464h-0.469v-2.154h0.469l1.054 1.473v-1.473h0.47v2.154zM30.968 21.536c-0.097 0.162-0.245 0.295-0.425 0.38-0.183 0.086-0.397 0.136-0.623 0.136-0.013 0-0.027-0-0.040-0.001l0.002 0h-0.836v-2.153h0.837c0.012-0 0.026-0 0.039-0 0.225 0 0.439 0.049 0.631 0.137l-0.010-0.004c0.179 0.083 0.328 0.214 0.425 0.376 0.097 0.175 0.147 0.369 0.147 0.565s-0.050 0.39-0.147 0.565zM30.43 21.484c0.128-0.134 0.206-0.314 0.208-0.514v-0c0-0.189-0.074-0.371-0.208-0.514-0.146-0.115-0.332-0.185-0.535-0.185-0.019 0-0.038 0.001-0.056 0.002l0.003-0h-0.326v1.394h0.326c0.016 0.001 0.035 0.002 0.054 0.002 0.203 0 0.389-0.070 0.536-0.186l-0.002 0.001zM25.341 7.919s6.066 2.097 5.937 5.131v5.132s-6.061-2.097-5.935-5.132l-0.002-5.131zM36.682 16.98c1.146-0.722 2.471-1.169 3.854-1.3v-1.607c-1.594 0.563-2.946 1.583-3.854 2.907z"></path>
<path fill="#afb1b8" style="fill: var(--color3, #afb1b8)" d="M35.994 17.464c0.937-1.729 2.563-3.063 4.542-3.728v-4.629s-8.638 2.987-8.456 7.307v7.306s0.385-0.134 0.991-0.384c0-0.233 0-0.469 0.028-0.706 0.178-2.006 1.22-3.864 2.895-5.168z"></path>
<path fill="#afb1b8" style="fill: var(--color3, #afb1b8)" d="M35.172 20.178c0.045-0.507 0.146-1.008 0.302-1.496-1.043 1.125-1.675 2.522-1.806 3.993-0.013 0.139-0.020 0.278-0.023 0.421 0.721-0.315 1.266-0.583 1.801-0.87l-0.139 0.068c-0.153-0.696-0.198-1.408-0.134-2.116zM35.515 20.205c-0.017 0.177-0.026 0.384-0.026 0.592 0 0.469 0.049 0.926 0.141 1.367l-0.008-0.043c2.36-1.293 5.012-3.291 4.91-5.705v-0.21c-1.686 0.173-3.264 0.848-4.49 1.921-0.27 0.608-0.457 1.313-0.524 2.053l-0.002 0.026z"></path>
</symbol>
<symbol id="icon-Client-6" viewBox="0 0 59 32">
<path fill="#afb1b8" style="fill: var(--color3, #afb1b8)" d="M29.713 15.098c-0.133-0.171-0.213-0.389-0.213-0.625 0-0.023 0.001-0.047 0.002-0.070l-0 0.003v-1.003c0-0.307 0.070-0.541 0.209-0.701s0.379-0.239 0.718-0.239c0.319 0 0.546 0.068 0.68 0.204 0.146 0.174 0.217 0.386 0.201 0.6v0.236h-0.57v-0.239c0.002-0.078-0.003-0.157-0.017-0.234-0.010-0.056-0.039-0.105-0.081-0.138l-0-0c-0.051-0.035-0.115-0.055-0.183-0.055-0.008 0-0.017 0-0.025 0.001l0.001-0c-0.007-0.001-0.016-0.001-0.024-0.001-0.072 0-0.139 0.022-0.194 0.059l0.001-0.001c-0.047 0.038-0.081 0.091-0.094 0.151l-0 0.002c-0.014 0.069-0.023 0.148-0.023 0.229 0 0.007 0 0.013 0 0.020v-0.001 1.217c-0.009 0.117 0.016 0.235 0.073 0.342 0.030 0.037 0.068 0.065 0.112 0.082l0.002 0.001c0.034 0.014 0.073 0.021 0.114 0.021 0.012 0 0.024-0.001 0.035-0.002l-0.001 0c0.007 0.001 0.015 0.001 0.024 0.001 0.067 0 0.129-0.021 0.179-0.057l-0.001 0.001c0.044-0.037 0.075-0.088 0.085-0.146l0-0.001c0.014-0.081 0.019-0.162 0.018-0.244v-0.247h0.571v0.225c0.001 0.018 0.002 0.039 0.002 0.060 0 0.217-0.075 0.416-0.201 0.573l0.001-0.002c-0.131 0.149-0.355 0.223-0.683 0.223s-0.577-0.080-0.717-0.245zM32.089 15.109c-0.144-0.157-0.216-0.384-0.216-0.685v-1.055c0-0.298 0.072-0.523 0.216-0.677s0.385-0.229 0.723-0.229c0.336 0 0.575 0.077 0.72 0.229 0.144 0.153 0.217 0.378 0.217 0.677v1.055c0 0.298-0.073 0.527-0.22 0.684s-0.385 0.235-0.717 0.235-0.578-0.080-0.723-0.234zM33.078 14.856c0.052-0.097 0.075-0.205 0.069-0.312v-1.292c0.001-0.010 0.001-0.023 0.001-0.035 0-0.099-0.025-0.193-0.070-0.274l0.002 0.003c-0.030-0.037-0.070-0.066-0.115-0.083l-0.002-0.001c-0.033-0.013-0.072-0.020-0.112-0.020-0.014 0-0.027 0.001-0.040 0.003l0.002-0c-0.012-0.002-0.025-0.002-0.039-0.002-0.040 0-0.079 0.008-0.115 0.021l0.002-0.001c-0.047 0.018-0.087 0.047-0.117 0.083l-0 0.001c-0.052 0.096-0.075 0.201-0.069 0.306v1.298c-0.007 0.107 0.016 0.215 0.069 0.312 0.033 0.033 0.074 0.059 0.12 0.077 0.043 0.018 0.094 0.028 0.147 0.028s0.103-0.010 0.149-0.029l-0.003 0.001c0.046-0.018 0.087-0.045 0.12-0.077v-0.006zM34.436 12.495h0.614l0.462 1.946 0.473-1.946h0.598l0.061 2.809h-0.442l-0.047-1.952-0.456 1.952h-0.354l-0.473-1.959-0.044 1.959h-0.447l0.056-2.809zM37.332 12.495h0.957c0.551 0 0.827 0.266 0.827 0.798 0 0.509-0.29 0.764-0.871 0.763h-0.326v1.248h-0.591l0.003-2.809zM38.15 13.696c0.058 0.007 0.118 0.002 0.174-0.014s0.107-0.041 0.151-0.075c0.068-0.095 0.098-0.206 0.085-0.317 0-0.009 0.001-0.020 0.001-0.031 0-0.080-0.011-0.157-0.030-0.23l0.001 0.006c-0.009-0.030-0.024-0.056-0.044-0.077l0 0c-0.021-0.023-0.045-0.042-0.073-0.056l-0.001-0.001c-0.069-0.029-0.149-0.046-0.233-0.046-0.011 0-0.022 0-0.032 0.001l0.002-0h-0.229v0.84h0.229zM39.968 12.495h0.635l0.651 2.809h-0.551l-0.129-0.648h-0.566l-0.133 0.648h-0.559l0.651-2.809zM40.511 14.331l-0.221-1.179-0.221 1.179h0.442zM41.78 12.495h0.414l0.792 1.602v-1.602h0.49v2.809h-0.393l-0.797-1.673v1.673h-0.507l0.001-2.809zM44.624 14.233l-0.658-1.734h0.554l0.402 1.114 0.377-1.114h0.543l-0.65 1.734v1.071h-0.567v-1.071zM30.625 16.533v0.147h-0.482v1.142h-0.202v-1.142h-0.485v-0.147h1.169zM32.137 17.821h-0.156c-0.001 0-0.003 0-0.004 0-0.015 0-0.028-0.005-0.040-0.012l0 0c-0.011-0.007-0.020-0.017-0.026-0.029l-0-0-0.139-0.306h-0.669l-0.139 0.306c-0.004 0.014-0.012 0.025-0.022 0.035l-0 0c-0.011 0.008-0.025 0.012-0.040 0.012-0.001 0-0.002-0-0.004-0h-0.156l0.591-1.288h0.206l0.598 1.283zM31.158 17.343h0.558l-0.237-0.525c-0.015-0.033-0.030-0.073-0.042-0.115l-0.002-0.007c-0.008 0.024-0.015 0.048-0.022 0.069l-0.022 0.054-0.234 0.523zM33.155 17.695c0.037 0.002 0.074 0.002 0.111 0 0.032-0.003 0.063-0.008 0.094-0.015 0.029-0.006 0.057-0.014 0.085-0.023 0.026-0.009 0.052-0.021 0.079-0.032v-0.29h-0.236c-0.001 0-0.001 0-0.002 0-0.011 0-0.022-0.004-0.030-0.011l0 0c-0.004-0.003-0.007-0.006-0.009-0.010l-0-0c-0.002-0.003-0.003-0.007-0.003-0.012 0-0 0-0.001 0-0.001v0-0.099h0.458v0.494c-0.072 0.045-0.155 0.081-0.243 0.103l-0.006 0.001c-0.049 0.013-0.098 0.021-0.148 0.027-0.057 0.006-0.115 0.008-0.173 0.008-0.002 0-0.005 0-0.008 0-0.104 0-0.204-0.018-0.297-0.050l0.006 0.002c-0.091-0.032-0.17-0.077-0.237-0.135l0.001 0.001c-0.063-0.056-0.115-0.124-0.151-0.2l-0.002-0.004c-0.034-0.076-0.054-0.165-0.054-0.259 0-0.003 0-0.006 0-0.009v0c-0-0.002-0-0.005-0-0.008 0-0.094 0.020-0.184 0.055-0.266l-0.002 0.004c0.034-0.077 0.086-0.146 0.152-0.204 0.067-0.058 0.148-0.103 0.237-0.134 0.101-0.033 0.209-0.049 0.317-0.048 0.055 0 0.11 0.003 0.164 0.011 0.048 0.007 0.095 0.018 0.141 0.033 0.042 0.013 0.081 0.031 0.118 0.051 0.036 0.020 0.071 0.042 0.103 0.067l-0.057 0.080c-0.005 0.007-0.011 0.013-0.019 0.017l-0 0c-0.008 0.004-0.017 0.007-0.027 0.007h-0c-0.013-0-0.026-0.004-0.037-0.010l0 0c-0.024-0.011-0.043-0.021-0.061-0.032l0.003 0.002c-0.022-0.012-0.048-0.024-0.075-0.034l-0.004-0.001c-0.030-0.011-0.067-0.021-0.104-0.028l-0.005-0.001c-0.043-0.007-0.092-0.011-0.142-0.011-0.003 0-0.006 0-0.008 0h0c-0.002-0-0.005-0-0.007-0-0.079 0-0.155 0.013-0.226 0.037l0.005-0.001c-0.066 0.023-0.125 0.057-0.174 0.102-0.047 0.044-0.084 0.097-0.108 0.157l-0.001 0.003c-0.025 0.064-0.040 0.138-0.040 0.215s0.015 0.151 0.041 0.219l-0.001-0.004c0.026 0.061 0.066 0.116 0.118 0.162 0.048 0.044 0.107 0.079 0.172 0.102 0.075 0.022 0.155 0.031 0.234 0.025zM35.039 17.674h0.645v0.147h-0.842v-1.288h0.202l-0.005 1.142zM36.355 17.821h-0.202v-1.288h0.202v1.288zM37.106 16.539c0.012 0.006 0.022 0.014 0.031 0.023l0 0 0.864 0.971c-0.001-0.007-0.001-0.015-0.001-0.023s0-0.016 0.001-0.024l-0 0.001v-0.96h0.176v1.294h-0.102c-0.002 0-0.004 0-0.007 0-0.013 0-0.026-0.003-0.038-0.008l0.001 0c-0.012-0.006-0.023-0.015-0.032-0.024l-0-0-0.863-0.97v1.002h-0.169v-1.288h0.105c0.011 0 0.023 0.002 0.033 0.006zM39.665 16.533v0.142h-0.716v0.425h0.58v0.137h-0.58v0.44h0.716v0.142h-0.924v-1.285h0.924zM18.491 8.576l8.972 2.2v7.707l-8.972-2.198v-7.709zM17.915 7.919v8.739l10.122 2.482v-8.739l-10.122-2.483z"></path>
<path fill="#afb1b8" style="fill: var(--color3, #afb1b8)" d="M23.341 23.197l-10.123-2.484v-8.739l10.123 2.483v8.739z"></path>
<path fill="#afb1b8" style="fill: var(--color3, #afb1b8)" d="M18.083 8.477l8.855 2.172-3.766 3.252-8.857-2.173 3.767-3.251zM17.915 7.919l-4.698 4.056 10.123 2.483 4.697-4.056-10.122-2.483zM23.91 22.706l4.128-3.564-4.128-1.013v4.577z"></path>
</symbol>
<symbol id="icon-clock-1" viewBox="0 0 32 32">
<path fill="#212121" style="fill: var(--color1, #212121)" d="M31.296 15.301c-0.001-8.452-6.855-15.303-15.308-15.301s-15.303 6.855-15.301 15.308c0.002 6.788 4.422 12.543 10.541 14.545l0.108 0.031c0.061 0.019 0.123 0.029 0.187 0.029 0.12 0 0.238-0.032 0.342-0.094 0.135-0.080 0.236-0.207 0.283-0.357l3.865-12.25c1.054-0.004 1.906-0.859 1.906-1.913 0-1.056-0.856-1.913-1.913-1.913-0.303 0-0.59 0.071-0.845 0.196l0.011-0.005-5.106-5.107c-0.114-0.11-0.271-0.179-0.443-0.179-0.352 0-0.638 0.286-0.638 0.638 0 0.172 0.068 0.328 0.179 0.443l-0-0 5.103 5.109c-0.121 0.241-0.191 0.525-0.191 0.826 0 0.602 0.283 1.137 0.723 1.48l0.004 0.003-3.682 11.673c-7.278-2.681-11.004-10.754-8.324-18.032s10.754-11.004 18.032-8.323c7.278 2.681 11.004 10.754 8.323 18.032-1.345 3.581-4.003 6.406-7.374 7.938l-0.088 0.036-0.398-1.874c-0.063-0.291-0.318-0.506-0.624-0.506-0.164 0-0.313 0.062-0.426 0.163l0.001-0.001-3.837 3.426c-0.132 0.117-0.214 0.287-0.214 0.477 0 0.283 0.185 0.524 0.441 0.606l0.005 0.001 4.899 1.563c0.058 0.020 0.126 0.031 0.196 0.031 0.352 0 0.637-0.285 0.637-0.637 0-0.047-0.005-0.093-0.015-0.138l0.001 0.004-0.391-1.839c5.528-2.374 9.329-7.772 9.329-14.057 0-0.011 0-0.023-0-0.034v0.002zM15.992 14.664c0.352 0 0.638 0.286 0.638 0.638s-0.285 0.638-0.638 0.638v0c-0.352 0-0.638-0.286-0.638-0.638s0.286-0.638 0.638-0.638v0zM18.092 29.528l2.184-1.948 0.603 2.84-2.787-0.892z"></path>
<path fill="#2196f3" style="fill: var(--color2, #2196f3)" d="M15.354 3.185v1.275c0 0.352 0.286 0.638 0.638 0.638s0.638-0.285 0.638-0.638v0-1.275c0-0.352-0.285-0.638-0.638-0.638s-0.638 0.285-0.638 0.638v0zM3.876 14.664c-0.352 0-0.638 0.286-0.638 0.638s0.285 0.638 0.638 0.638h1.275c0.352 0 0.638-0.286 0.638-0.638s-0.285-0.638-0.638-0.638h-1.275zM28.108 15.939c0.352 0 0.638-0.286 0.638-0.638s-0.285-0.638-0.638-0.638h-1.275c-0.352 0-0.638 0.286-0.638 0.638s0.285 0.638 0.638 0.638h1.275z"></path>
</symbol>
<symbol id="icon-diagram-1" viewBox="0 0 32 32">
<path fill="#2196f3" style="fill: var(--color2, #2196f3)" d="M14.926 14.965h1.066v4.798h-1.066v-4.798zM19.19 17.097h1.066v2.665h-1.066v-2.665zM10.661 18.696h1.066v1.066h-1.066v-1.066zM7.463 18.163h1.066v1.599h-1.066v-1.599z"></path>
<path fill="#212121" style="fill: var(--color1, #212121)" d="M1.599 28.291h25.586c0 0 0 0 0 0 0.883 0 1.599-0.716 1.599-1.599v0-2.132c0-0.883-0.716-1.599-1.599-1.599v0h-0.533v-13.294l3.028-2.868c0.207 0.104 0.452 0.166 0.711 0.166 0.888 0 1.608-0.72 1.608-1.608s-0.72-1.608-1.608-1.608c-0.888 0-1.608 0.72-1.608 1.608 0 0.247 0.056 0.481 0.155 0.69l-0.004-0.010-2.281 2.162v-1.23c0-0.883-0.716-1.599-1.599-1.599v0h-21.323c-0.883 0-1.599 0.716-1.599 1.599v0 15.992h-0.533c-0.883 0-1.599 0.716-1.599 1.599v0 2.132c0 0.883 0.716 1.599 1.599 1.599v0zM30.384 4.837c0.294 0 0.533 0.239 0.533 0.533s-0.239 0.533-0.533 0.533v0c-0.294 0-0.533-0.239-0.533-0.533s0.239-0.533 0.533-0.533v0zM3.198 6.969c0-0.294 0.239-0.533 0.533-0.533h21.323c0.294 0 0.533 0.239 0.533 0.533v2.239l-1.066 1.013v-2.185c0-0.295-0.239-0.534-0.534-0.534h-19.189c-0.294 0-0.534 0.239-0.534 0.533v13.327c0 0.294 0.239 0.533 0.534 0.533h19.189c0.295 0 0.534-0.239 0.534-0.533v-9.675l1.066-1.010v12.283h-22.389v-15.991zM7.996 13.899c-0.001 0-0.003 0-0.005 0-0.883 0-1.599 0.716-1.599 1.599s0.716 1.599 1.599 1.599c0.432 0 0.824-0.172 1.112-0.45l-0 0 1.853 0.93c0.215 0.107 0.476 0.057 0.636-0.122l3.939-4.432 3.872 2.902c0.208 0.155 0.498 0.139 0.686-0.039l3.365-3.188v8.131h-18.123v-12.261h18.123v2.661l-3.771 3.572-3.904-2.927c-0.088-0.067-0.2-0.107-0.32-0.107-0.158 0-0.3 0.069-0.398 0.178l-0 0.001-3.993 4.493-1.493-0.746c0.011-0.064 0.017-0.128 0.020-0.193 0-0.883-0.716-1.599-1.599-1.599v0zM8.529 15.498c0 0.294-0.239 0.533-0.533 0.533s-0.533-0.239-0.533-0.533v0c0-0.294 0.239-0.533 0.533-0.533s0.533 0.239 0.533 0.533v0zM11.727 24.026h5.33v0.533c0 0.294-0.238 0.533-0.533 0.533h-4.265c-0.294 0-0.533-0.239-0.533-0.533v0-0.533zM1.067 24.56c0-0.294 0.238-0.533 0.533-0.533h9.062v0.533c0 0.883 0.716 1.599 1.599 1.599v0h4.265c0.883 0 1.599-0.716 1.599-1.599v0-0.533h9.062c0.294 0 0.533 0.239 0.533 0.533v2.132c0 0.294-0.239 0.533-0.533 0.533h-25.586c-0 0-0 0-0 0-0.294 0-0.533-0.239-0.533-0.533 0 0 0 0 0 0v0-2.132z"></path>
</symbol>
<symbol id="icon-envelope" viewBox="0 0 43 32">
<path fill="#757575" style="fill: var(--color4, #757575)" d="M38.667 0h-34.667c-2.205 0-4 1.795-4 4v24c0 2.205 1.795 4 4 4h34.667c2.205 0 4-1.795 4-4v-24c0-2.205-1.795-4-4-4zM38.667 2.667c0.181 0 0.355 0.037 0.512 0.104l-17.845 15.467-17.845-15.467c0.151-0.065 0.327-0.104 0.512-0.104h34.667zM38.667 29.333h-34.667c-0.736 0-1.333-0.597-1.333-1.333v0-22.413l17.792 15.421c0.233 0.203 0.539 0.327 0.875 0.327s0.642-0.124 0.876-0.328l-0.002 0.001 17.792-15.421v22.413c0 0.736-0.597 1.333-1.333 1.333v0z"></path>
</symbol>
<symbol id="icon-facebook-1" viewBox="0 0 32 32">
<path fill="#afb1b8" style="fill: var(--color3, #afb1b8)" d="M21.328 5.312h2.923v-5.088c-1.232-0.143-2.66-0.224-4.107-0.224-0.052 0-0.104 0-0.157 0l0.008-0c-4.213 0-7.099 2.65-7.099 7.52v4.48h-4.646v5.688h4.646v14.312h5.699v-14.31h4.459l0.709-5.688h-5.17v-3.922c0-1.643 0.443-2.768 2.734-2.768z"></path>
</symbol>
<symbol id="icon-group-1" viewBox="0 0 67 32">
<path fill="#afb1b8" style="fill: var(--color3, #afb1b8)" d="M33.724 15.223c-0.271-0.35-0.435-0.795-0.435-1.278 0-0.048 0.002-0.095 0.005-0.142l-0 0.006v-2.051c0-0.628 0.142-1.106 0.428-1.433 0.284-0.327 0.774-0.489 1.468-0.488 0.652 0 1.116 0.139 1.389 0.417 0.299 0.355 0.444 0.789 0.411 1.226v0.482h-1.166v-0.489c0.004-0.159-0.007-0.319-0.034-0.477-0.020-0.116-0.081-0.214-0.166-0.283l-0.001-0.001c-0.105-0.070-0.234-0.112-0.373-0.112-0.018 0-0.035 0.001-0.052 0.002l0.002-0c-0.015-0.001-0.033-0.002-0.050-0.002-0.147 0-0.283 0.044-0.397 0.12l0.003-0.002c-0.096 0.077-0.166 0.185-0.193 0.309l-0.001 0.004c-0.030 0.14-0.047 0.302-0.047 0.467 0 0.014 0 0.028 0 0.042l-0-0.002v2.488c-0.019 0.24 0.033 0.48 0.149 0.698 0.061 0.075 0.139 0.133 0.23 0.168l0.004 0.001c0.068 0.027 0.148 0.043 0.231 0.043 0.025 0 0.050-0.001 0.074-0.004l-0.003 0c0.015 0.001 0.032 0.002 0.049 0.002 0.136 0 0.262-0.043 0.365-0.116l-0.002 0.001c0.090-0.075 0.153-0.18 0.174-0.299l0-0.003c0.027-0.165 0.040-0.332 0.036-0.498v-0.505h1.167v0.461c0.003 0.036 0.004 0.079 0.004 0.122 0 0.443-0.153 0.85-0.41 1.171l0.003-0.004c-0.268 0.304-0.725 0.457-1.397 0.457s-1.179-0.163-1.466-0.501zM38.583 15.245c-0.295-0.32-0.442-0.784-0.442-1.399v-2.157c0-0.609 0.147-1.070 0.442-1.383s0.787-0.469 1.478-0.467c0.686 0 1.176 0.156 1.471 0.467 0.294 0.313 0.444 0.774 0.444 1.383v2.156c0 0.609-0.149 1.077-0.449 1.398s-0.787 0.481-1.466 0.481-1.181-0.163-1.479-0.479zM40.604 14.727c0.106-0.199 0.154-0.419 0.14-0.638v-2.641c0.001-0.021 0.002-0.046 0.002-0.071 0-0.203-0.052-0.394-0.142-0.561l0.003 0.006c-0.062-0.076-0.142-0.135-0.234-0.17l-0.004-0.001c-0.068-0.027-0.146-0.042-0.229-0.042-0.028 0-0.056 0.002-0.083 0.005l0.003-0c-0.024-0.003-0.051-0.005-0.079-0.005-0.083 0-0.161 0.015-0.234 0.043l0.004-0.002c-0.096 0.036-0.177 0.096-0.239 0.171l-0.001 0.001c-0.107 0.195-0.154 0.41-0.14 0.626v2.652c-0.014 0.22 0.033 0.439 0.14 0.639 0.068 0.067 0.152 0.121 0.246 0.158 0.089 0.036 0.192 0.056 0.3 0.056s0.211-0.021 0.305-0.058l-0.006 0.002c0.095-0.037 0.178-0.091 0.246-0.158v-0.013zM43.381 9.902h1.256l0.944 3.979 0.967-3.979h1.222l0.124 5.743h-0.904l-0.097-3.991-0.932 3.991h-0.725l-0.966-4.006-0.090 4.006h-0.913l0.114-5.743zM49.301 9.902h1.957c1.127 0 1.691 0.543 1.691 1.631 0 1.041-0.594 1.562-1.781 1.56h-0.666v2.552h-1.208l0.007-5.744zM50.973 12.356c0.119 0.014 0.24 0.004 0.356-0.028 0.114-0.031 0.22-0.083 0.309-0.154 0.139-0.194 0.2-0.422 0.174-0.649 0.001-0.019 0.001-0.041 0.001-0.063 0-0.163-0.022-0.321-0.062-0.471l0.003 0.013c-0.019-0.061-0.050-0.114-0.089-0.158l0 0c-0.042-0.047-0.093-0.086-0.149-0.114l-0.003-0.001c-0.141-0.059-0.304-0.094-0.476-0.094-0.022 0-0.044 0.001-0.066 0.002l0.003-0h-0.469v1.717h0.469zM54.692 9.902h1.297l1.331 5.743h-1.126l-0.263-1.324h-1.157l-0.27 1.324h-1.143l1.331-5.743zM55.8 13.655l-0.452-2.411-0.452 2.411h0.903zM58.394 9.902h0.846l1.618 3.276v-3.276h1.003v5.743h-0.804l-1.628-3.42v3.42h-1.036l0.002-5.743zM64.209 13.454l-1.345-3.545h1.133l0.821 2.278 0.77-2.278h1.109l-1.329 3.546v2.19h-1.159v-2.19zM35.59 18.156v0.3h-0.986v2.334h-0.413v-2.334h-0.991v-0.3h2.389zM38.679 20.79h-0.319c-0.003 0-0.006 0-0.009 0-0.030 0-0.058-0.009-0.081-0.025l0 0c-0.023-0.015-0.041-0.035-0.052-0.060l-0-0.001-0.285-0.626h-1.367l-0.284 0.626c-0.009 0.028-0.024 0.052-0.044 0.071l-0 0c-0.023 0.016-0.052 0.025-0.082 0.025-0.003 0-0.005-0-0.008-0h-0.318l1.208-2.634h0.42l1.223 2.624zM36.679 19.812h1.14l-0.484-1.072c-0.031-0.067-0.061-0.15-0.086-0.235l-0.003-0.014c-0.017 0.050-0.031 0.098-0.045 0.14l-0.044 0.11-0.478 1.070zM40.762 20.531c0.076 0.004 0.151 0.004 0.228 0 0.065-0.006 0.129-0.016 0.193-0.031 0.059-0.012 0.117-0.028 0.174-0.048 0.053-0.018 0.107-0.042 0.161-0.065v-0.592h-0.483c-0.001 0-0.003 0-0.004 0-0.023 0-0.044-0.008-0.061-0.022l0 0c-0.008-0.006-0.014-0.013-0.018-0.021l-0-0c-0.004-0.007-0.006-0.015-0.006-0.024 0-0.001 0-0.002 0-0.003v0-0.202h0.937v1.010c-0.147 0.091-0.316 0.165-0.496 0.211l-0.013 0.003c-0.1 0.026-0.2 0.043-0.302 0.055-0.117 0.011-0.235 0.016-0.353 0.016-0.005 0-0.010 0-0.015 0-0.212 0-0.416-0.036-0.606-0.102l0.013 0.004c-0.186-0.065-0.347-0.158-0.486-0.277l0.002 0.002c-0.129-0.114-0.234-0.253-0.308-0.409l-0.003-0.008c-0.070-0.156-0.111-0.338-0.111-0.529 0-0.006 0-0.012 0-0.019v0.001c-0-0.005-0-0.010-0-0.016 0-0.193 0.040-0.377 0.112-0.543l-0.003 0.009c0.069-0.156 0.176-0.299 0.311-0.417 0.138-0.119 0.302-0.211 0.484-0.273 0.206-0.068 0.427-0.101 0.647-0.098 0.112 0 0.225 0.007 0.336 0.023 0.098 0.014 0.195 0.036 0.287 0.067 0.085 0.027 0.166 0.063 0.242 0.105 0.074 0.041 0.144 0.087 0.211 0.137l-0.116 0.163c-0.010 0.015-0.023 0.027-0.039 0.035l-0.001 0c-0.016 0.009-0.035 0.014-0.055 0.014h-0c-0.028-0.001-0.053-0.008-0.075-0.021l0.001 0c-0.049-0.023-0.088-0.044-0.126-0.066l0.007 0.004c-0.045-0.025-0.099-0.049-0.154-0.069l-0.008-0.002c-0.062-0.022-0.136-0.042-0.213-0.057l-0.009-0.001c-0.087-0.015-0.188-0.023-0.29-0.023-0.006 0-0.011 0-0.017 0h0.001c-0.004-0-0.010-0-0.015-0-0.162 0-0.317 0.027-0.462 0.076l0.010-0.003c-0.134 0.046-0.256 0.117-0.356 0.208-0.095 0.090-0.171 0.199-0.222 0.321l-0.002 0.006c-0.051 0.13-0.081 0.281-0.081 0.439s0.030 0.309 0.084 0.448l-0.003-0.008c0.053 0.124 0.135 0.237 0.242 0.332 0.099 0.090 0.219 0.161 0.352 0.208 0.154 0.046 0.316 0.063 0.479 0.052zM44.612 20.49h1.319v0.3h-1.722v-2.634h0.412l-0.009 2.334zM47.303 20.79h-0.412v-2.634h0.412v2.634zM48.84 18.169c0.025 0.012 0.046 0.028 0.063 0.047l0 0 1.766 1.985c-0.001-0.014-0.002-0.030-0.002-0.047s0.001-0.033 0.002-0.049l-0 0.002v-1.963h0.36v2.645h-0.208c-0.004 0-0.009 0-0.014 0-0.027 0-0.054-0.006-0.077-0.016l0.001 0c-0.025-0.013-0.047-0.030-0.065-0.050l-0-0-1.764-1.984v2.048h-0.346v-2.634h0.215c0.023 0 0.047 0.004 0.068 0.012zM54.070 18.156v0.289h-1.463v0.87h1.186v0.279h-1.186v0.9h1.463v0.289h-1.889v-2.628h1.889zM10.782 1.889l18.343 4.496v15.757l-18.343-4.494v-15.76zM9.605 0.545v17.868l20.693 5.075v-17.866l-20.693-5.076z"></path>
<path fill="#afb1b8" style="fill: var(--color3, #afb1b8)" d="M20.696 31.781l-20.696-5.079v-17.865l20.696 5.077v17.867z"></path>
<path fill="#afb1b8" style="fill: var(--color3, #afb1b8)" d="M9.948 1.686l18.103 4.44-7.698 6.649-18.107-4.442 7.702-6.647zM9.605 0.545l-9.605 8.292 20.696 5.077 9.603-8.294-20.693-5.075zM21.86 30.776l8.439-7.288-8.439-2.069v9.358z"></path>
</symbol>
<symbol id="icon-group-2" viewBox="0 0 65 32">
<path fill="#2196f3" style="fill: var(--color2, #2196f3)" d="M10.016 9.983h-0.002c-1.827 0-3.308 1.316-3.308 2.94v0.002c0 1.624 1.481 2.94 3.308 2.94h0.002c1.827 0 3.308-1.317 3.308-2.94v-0.002c0-1.624-1.481-2.941-3.308-2.941zM34.434 9.044c-0.005-2.255-1.016-4.418-2.81-6.012s-4.226-2.493-6.763-2.498c-2.539 0.004-4.972 0.902-6.767 2.497s-2.806 3.757-2.811 6.013v12.437s19.15-1.896 19.152-12.434v-0.002zM0 25.562c0.005 1.57 0.709 3.073 1.957 4.183s2.94 1.735 4.706 1.739c1.765-0.005 3.457-0.63 4.706-1.739s1.952-2.613 1.957-4.181v-8.654s-13.324 1.32-13.324 8.652zM6.662 27.112c-0.345 0-0.682-0.091-0.969-0.261-0.279-0.164-0.499-0.401-0.638-0.686l-0.004-0.009c-0.084-0.173-0.132-0.377-0.132-0.592 0-0.107 0.012-0.212 0.035-0.312l-0.002 0.009c0.067-0.301 0.233-0.578 0.477-0.794 0.243-0.214 0.547-0.364 0.882-0.423l0.011-0.002c0.103-0.019 0.221-0.030 0.341-0.030 0.239 0 0.469 0.043 0.68 0.122l-0.013-0.004c0.319 0.117 0.592 0.316 0.783 0.571s0.294 0.555 0.294 0.861c0.001 0.204-0.043 0.407-0.131 0.596-0.094 0.198-0.221 0.366-0.376 0.503l-0.002 0.001c-0.162 0.145-0.354 0.259-0.567 0.338-0.199 0.075-0.428 0.119-0.668 0.119-0 0-0.001 0-0.001 0h0v-0.006zM20.128 26.258h-1.286v1.328h-0.67v-3.251h2.117v0.542h-1.447v0.84h1.286v0.54zM23.346 26.035c0 0.32-0.056 0.6-0.169 0.841s-0.276 0.427-0.488 0.558c-0.199 0.124-0.44 0.197-0.698 0.197-0.008 0-0.017-0-0.025-0l0.001 0c-0.27 0-0.51-0.065-0.722-0.194-0.213-0.134-0.382-0.322-0.487-0.546l-0.003-0.008c-0.112-0.236-0.177-0.512-0.177-0.804 0-0.009 0-0.019 0-0.028l-0 0.001v-0.16c0-0.32 0.058-0.602 0.172-0.844 0.116-0.244 0.279-0.431 0.489-0.56 0.211-0.131 0.452-0.197 0.723-0.197s0.51 0.066 0.721 0.197c0.211 0.13 0.374 0.316 0.489 0.56 0.116 0.242 0.174 0.523 0.174 0.841v0.145zM22.668 25.887c0-0.341-0.061-0.6-0.183-0.777-0.108-0.161-0.29-0.266-0.496-0.266-0.009 0-0.018 0-0.028 0.001l0.001-0c-0.008-0-0.016-0.001-0.025-0.001-0.205 0-0.387 0.104-0.494 0.262l-0.001 0.002c-0.122 0.174-0.184 0.43-0.185 0.768v0.158c0 0.331 0.061 0.589 0.183 0.772s0.297 0.274 0.527 0.274c0.008 0 0.017 0.001 0.026 0.001 0.204 0 0.384-0.104 0.49-0.261l0.001-0.002c0.12-0.177 0.181-0.434 0.183-0.773v-0.158zM25.518 26.733c0-0.006 0.001-0.012 0.001-0.019 0-0.11-0.052-0.208-0.133-0.27l-0.001-0.001c-0.089-0.069-0.25-0.14-0.482-0.214-0.214-0.067-0.396-0.142-0.57-0.232l0.019 0.009c-0.37-0.2-0.554-0.469-0.554-0.806 0-0.175 0.049-0.332 0.147-0.469 0.1-0.139 0.242-0.246 0.427-0.324 0.186-0.077 0.395-0.116 0.625-0.116 0.232 0 0.439 0.042 0.621 0.127 0.181 0.084 0.322 0.201 0.421 0.355 0.101 0.152 0.152 0.328 0.152 0.522h-0.67c0-0.149-0.046-0.264-0.14-0.346-0.094-0.084-0.226-0.125-0.395-0.125-0.164 0-0.291 0.035-0.382 0.105-0.083 0.060-0.136 0.156-0.136 0.265 0 0.003 0 0.005 0 0.008v-0c0 0.106 0.053 0.194 0.158 0.266 0.107 0.071 0.264 0.138 0.471 0.2 0.381 0.114 0.658 0.257 0.833 0.427s0.261 0.381 0.261 0.634c0 0.281-0.107 0.503-0.32 0.663s-0.498 0.239-0.859 0.239c-0.25 0-0.478-0.046-0.683-0.137-0.193-0.082-0.352-0.211-0.469-0.373l-0.002-0.003c-0.1-0.15-0.16-0.335-0.16-0.533 0-0.007 0-0.014 0-0.022l-0 0.001h0.671c0 0.358 0.214 0.538 0.643 0.538 0.159 0 0.283-0.032 0.373-0.096 0.081-0.058 0.134-0.153 0.134-0.259 0-0.004-0-0.009-0-0.013l0 0.001zM29.092 24.878h-0.995v2.708h-0.67v-2.708h-0.981v-0.542h2.647v0.542zM31.431 26.178h-1.285v0.871h1.509v0.538h-2.178v-3.251h2.174v0.542h-1.505v0.775h1.286v0.524zM33.25 26.396h-0.533v1.19h-0.67v-3.251h1.208c0.384 0 0.68 0.086 0.888 0.257s0.312 0.413 0.312 0.725c0 0.222-0.048 0.408-0.145 0.556-0.108 0.156-0.255 0.278-0.429 0.35l-0.006 0.002 0.702 1.328v0.030h-0.718l-0.61-1.189zM32.717 25.854h0.541c0.168 0 0.297-0.042 0.39-0.126 0.086-0.084 0.139-0.201 0.139-0.33 0-0.009-0-0.017-0.001-0.026l0 0.001c0-0.154-0.043-0.274-0.131-0.362s-0.219-0.132-0.4-0.132h-0.538v0.975zM36.775 26.441v1.145h-0.67v-3.251h1.268c0.244 0 0.459 0.045 0.643 0.134 0.186 0.089 0.329 0.216 0.429 0.382 0.099 0.164 0.149 0.35 0.149 0.56 0 0.318-0.11 0.57-0.328 0.754-0.218 0.183-0.519 0.275-0.904 0.275h-0.587zM36.775 25.899h0.598c0.178 0 0.312-0.042 0.404-0.125 0.094-0.084 0.141-0.203 0.141-0.357 0-0.007 0.001-0.016 0.001-0.024 0-0.14-0.053-0.267-0.141-0.363l0 0c-0.094-0.098-0.223-0.149-0.389-0.152h-0.614v1.021zM41.011 26.178h-1.285v0.871h1.509v0.538h-2.178v-3.251h2.174v0.542h-1.505v0.775h1.286v0.524zM44.119 24.878h-0.996v2.708h-0.67v-2.708h-0.982v-0.542h2.648v0.542zM46.458 26.178h-1.285v0.871h1.509v0.538h-2.179v-3.251h2.174v0.542h-1.504v0.775h1.285v0.524zM48.277 26.396h-0.533v1.19h-0.67v-3.251h1.208c0.384 0 0.68 0.086 0.888 0.257s0.312 0.413 0.312 0.725c0 0.222-0.049 0.408-0.145 0.556-0.108 0.156-0.256 0.278-0.429 0.35l-0.006 0.002 0.703 1.328v0.030h-0.718l-0.61-1.189zM47.744 25.854h0.54c0.168 0 0.298-0.042 0.39-0.126 0.086-0.084 0.139-0.201 0.139-0.331 0-0.009-0-0.017-0.001-0.025l0 0.001c0-0.154-0.043-0.274-0.132-0.362-0.086-0.088-0.219-0.132-0.399-0.132h-0.538v0.975zM51.679 26.734c0-0.006 0.001-0.012 0.001-0.019 0-0.11-0.052-0.208-0.134-0.271l-0.001-0.001c-0.089-0.069-0.25-0.14-0.482-0.214-0.214-0.067-0.396-0.142-0.57-0.232l0.019 0.009c-0.37-0.2-0.554-0.469-0.554-0.806 0-0.175 0.050-0.332 0.147-0.469 0.1-0.139 0.242-0.246 0.427-0.324 0.186-0.077 0.395-0.116 0.625-0.116 0.232 0 0.439 0.042 0.621 0.127 0.181 0.084 0.322 0.201 0.421 0.355 0.101 0.152 0.152 0.328 0.152 0.522h-0.67c0-0.149-0.046-0.264-0.14-0.346-0.094-0.084-0.226-0.125-0.395-0.125-0.164 0-0.291 0.035-0.382 0.105-0.083 0.060-0.137 0.156-0.137 0.265 0 0.002 0 0.005 0 0.007v-0c0 0.106 0.053 0.194 0.159 0.266s0.264 0.138 0.471 0.2c0.381 0.114 0.658 0.257 0.833 0.427s0.261 0.381 0.261 0.634c0 0.281-0.107 0.503-0.32 0.663s-0.499 0.239-0.859 0.239c-0.25 0-0.478-0.046-0.683-0.137-0.193-0.082-0.352-0.211-0.469-0.373l-0.002-0.003c-0.1-0.15-0.16-0.335-0.16-0.533 0-0.007 0-0.014 0-0.022l-0 0.001h0.671c0 0.358 0.214 0.538 0.643 0.538 0.159 0 0.283-0.032 0.373-0.096 0.082-0.058 0.134-0.153 0.134-0.26 0-0.004-0-0.009-0-0.013l0 0.001z"></path>
</symbol>
<symbol id="icon-group-3" viewBox="0 0 25 32">
<path fill="#afb1b8" style="fill: var(--color3, #afb1b8)" d="M10.532 1.806h-0.084c-0.129-0.008-0.258-0.011-0.388-0.014h-0.28c-0.244 0-0.494 0.006-0.741 0.018-0.008-0.001-0.018-0.001-0.028-0.001s-0.020 0-0.029 0.001l0.001-0c-2.376 0.138-4.582 0.733-6.576 1.696l0.104-0.045-0.266 0.128v13.626l0.623-0.212c0.546-0.188 1.129-0.357 1.731-0.513 1.488-0.398 3.202-0.638 4.967-0.661l0.014-0v1.79c-0.223 0.001-0.439 0.007-0.655 0.018h-0.052c-1.399 0.079-2.709 0.289-3.971 0.619l0.139-0.031c-1.734 0.441-3.254 1.050-4.666 1.83l0.1-0.051v-17.475c1.379-0.82 2.975-1.488 4.665-1.921l0.127-0.028c1.353-0.364 2.907-0.576 4.51-0.582h0.267c0.314 0.008 0.622 0.022 0.91 0.044 0.829 0.060 1.597 0.187 2.339 0.378l-0.090-0.020v1.762c-0.628-0.154-1.373-0.271-2.134-0.326l-0.045-0.003-0.044-0.004c-0.152-0.013-0.304-0.026-0.446-0.026zM13.633 3.607c0.391 0.030 0.796 0.044 1.205 0.044 1.689-0.007 3.324-0.228 4.881-0.639l-0.135 0.030c1.734-0.442 3.252-1.052 4.665-1.831l-0.101 0.051v17.163c-1.379 0.819-2.975 1.487-4.664 1.921l-0.127 0.028c-1.353 0.363-2.908 0.574-4.511 0.581h-0.004c-0.033 0-0.072 0-0.111 0-1.177 0-2.319-0.147-3.409-0.425l0.095 0.021v-17.275c0.265 0.062 0.537 0.118 0.814 0.164 0.455 0.077 0.934 0.133 1.401 0.167zM22.367 3.74l-0.623 0.209c-0.572 0.193-1.151 0.365-1.731 0.518-1.551 0.415-3.332 0.657-5.169 0.663h-0.004c-0.406 0-0.78-0.011-1.141-0.034l-0.497-0.033v14.017l0.426 0.037c0.395 0.035 0.803 0.052 1.214 0.052 1.45-0.006 2.853-0.198 4.189-0.553l-0.116 0.026c1.221-0.31 2.281-0.702 3.285-1.189l-0.102 0.044 0.266-0.128v-13.63z"></path>
<path fill="#afb1b8" style="fill: var(--color3, #afb1b8)" d="M1.684 25.977c-0.167-0.173-0.401-0.281-0.661-0.281-0.011 0-0.023 0-0.034 0.001l0.002-0c-0.004-0-0.009-0-0.014-0-0.139 0-0.272 0.028-0.393 0.078l0.007-0.003c-0.237 0.095-0.42 0.28-0.51 0.512l-0.002 0.006c-0.049 0.123-0.073 0.254-0.071 0.386v2.335c-0.006 0.164 0.026 0.328 0.092 0.479 0.055 0.12 0.135 0.226 0.234 0.313 0.093 0.078 0.202 0.135 0.32 0.166 0.114 0.031 0.231 0.048 0.349 0.048 0.13 0.001 0.258-0.026 0.377-0.081 0.351-0.156 0.591-0.5 0.591-0.901v-0.261h-0.611v0.208c0 0.004 0 0.009 0 0.014 0 0.070-0.013 0.136-0.037 0.198l0.001-0.004c-0.021 0.052-0.051 0.095-0.089 0.132l-0 0c-0.070 0.054-0.159 0.088-0.255 0.089h-0c-0.011 0.001-0.023 0.002-0.036 0.002-0.103 0-0.194-0.050-0.25-0.127l-0.001-0.001c-0.051-0.082-0.082-0.182-0.082-0.289 0-0.008 0-0.016 0.001-0.024l-0 0.001v-2.177c-0.004-0.121 0.022-0.24 0.075-0.349 0.056-0.087 0.153-0.143 0.262-0.143 0.013 0 0.025 0.001 0.038 0.002l-0.001-0c0.003-0 0.007-0 0.012-0 0.107 0 0.201 0.052 0.26 0.131l0.001 0.001c0.063 0.082 0.101 0.187 0.101 0.3 0 0.005-0 0.009-0 0.014v-0.001 0.202h0.604v-0.238c0-0.003 0-0.007 0-0.011 0-0.143-0.027-0.28-0.077-0.405l0.003 0.007c-0.048-0.128-0.117-0.237-0.205-0.329l0 0zM5.31 25.951c-0.186-0.158-0.429-0.255-0.694-0.257h-0c-0.124 0-0.248 0.023-0.364 0.066-0.252 0.090-0.451 0.276-0.557 0.511l-0.002 0.006c-0.062 0.142-0.092 0.297-0.089 0.452v2.239c-0.004 0.158 0.026 0.314 0.089 0.458 0.055 0.121 0.135 0.228 0.236 0.313 0.094 0.086 0.203 0.154 0.322 0.197 0.117 0.043 0.24 0.065 0.364 0.066 0.267-0.001 0.51-0.1 0.695-0.264l-0.001 0.001c0.097-0.087 0.176-0.194 0.23-0.313 0.063-0.144 0.093-0.301 0.089-0.458v-2.239c0-0.006 0-0.013 0-0.020 0-0.156-0.033-0.305-0.092-0.439l0.003 0.007c-0.057-0.128-0.135-0.237-0.23-0.327l-0-0zM5.025 28.969c0.001 0.010 0.002 0.023 0.002 0.035 0 0.114-0.047 0.216-0.123 0.289l-0 0c-0.077 0.065-0.178 0.105-0.287 0.105s-0.21-0.040-0.288-0.105l0.001 0.001c-0.076-0.073-0.123-0.175-0.123-0.289 0-0.012 0.001-0.025 0.002-0.037l-0 0.002v-2.239c-0.001-0.010-0.001-0.022-0.001-0.034 0-0.113 0.047-0.216 0.123-0.289l0-0c0.077-0.065 0.178-0.105 0.287-0.105s0.21 0.040 0.288 0.105l-0.001-0.001c0.076 0.073 0.123 0.175 0.123 0.289 0 0.012-0.001 0.025-0.002 0.037l0-0.002v2.24zM10.072 29.969v-4.24h-0.586l-0.771 2.244h-0.010l-0.777-2.244h-0.58v4.239h0.606v-2.578h0.011l0.593 1.823h0.302l0.598-1.823h0.010v2.578h0.606zM13.513 26.027c-0.093-0.105-0.211-0.185-0.342-0.232-0.124-0.042-0.267-0.066-0.416-0.066-0.008 0-0.016 0-0.024 0l0.001-0h-0.9v4.24h0.604v-1.656h0.311c0.189 0.009 0.376-0.031 0.545-0.116 0.139-0.078 0.251-0.188 0.329-0.32l0.002-0.004c0.070-0.113 0.117-0.238 0.138-0.369 0.021-0.133 0.033-0.287 0.033-0.444 0-0.013-0-0.027-0-0.040l0 0.002c0.006-0.203-0.014-0.407-0.059-0.606-0.043-0.153-0.12-0.284-0.223-0.39l0 0zM13.201 27.319c-0.003 0.081-0.023 0.157-0.057 0.224l0.001-0.003c-0.035 0.065-0.089 0.116-0.154 0.147l-0.002 0.001c-0.075 0.034-0.162 0.054-0.254 0.054-0.011 0-0.022-0-0.033-0.001l0.002 0h-0.276v-1.441h0.311c0.009-0 0.019-0.001 0.029-0.001 0.088 0 0.172 0.020 0.247 0.055l-0.004-0.002c0.062 0.036 0.111 0.090 0.141 0.154l0.001 0.002c0.033 0.074 0.051 0.155 0.053 0.236v0.282c0 0.098 0.006 0.201 0 0.291h-0.006zM16.374 25.729h-0.495l-0.934 4.24h0.604l0.177-0.911h0.823l0.178 0.911h0.604l-0.958-4.24zM15.817 28.481l0.297-1.537h0.011l0.295 1.537h-0.604zM20.277 28.283h-0.011l-0.912-2.554h-0.581v4.24h0.604v-2.55h0.012l0.923 2.549h0.568v-4.239h-0.604v2.554zM23.968 25.729l-0.486 1.686h-0.012l-0.486-1.686h-0.639l0.83 2.448v1.791h0.604v-1.791l0.83-2.447h-0.64zM0 31.166h0.291v0.817h0.198v-0.817h0.289v-0.167h-0.778v0.168zM2.447 30.998l-0.382 0.985h0.21l0.081-0.224h0.392l0.084 0.224h0.215l-0.391-0.985h-0.21zM2.417 31.593l0.134-0.365 0.134 0.365h-0.268zM4.866 31.62h0.228v0.127c-0.063 0.051-0.145 0.082-0.234 0.083h-0c-0.004 0-0.009 0-0.014 0-0.079 0-0.149-0.037-0.195-0.094l-0-0c-0.046-0.065-0.073-0.147-0.073-0.234 0-0.008 0-0.016 0.001-0.023l-0 0.001c0-0.219 0.095-0.329 0.283-0.329 0.006-0.001 0.014-0.001 0.021-0.001 0.097 0 0.178 0.067 0.201 0.157l0 0.001 0.194-0.038c-0.042-0.192-0.18-0.289-0.417-0.289-0.004-0-0.008-0-0.013-0-0.127 0-0.244 0.048-0.331 0.127l0-0c-0.088 0.087-0.143 0.208-0.143 0.342 0 0.013 0 0.026 0.002 0.038l-0-0.002c-0 0.007-0 0.015-0 0.023 0 0.132 0.048 0.254 0.127 0.347l-0.001-0.001c0.087 0.090 0.209 0.146 0.343 0.146 0.011 0 0.021-0 0.032-0.001l-0.001 0c0.005 0 0.010 0 0.016 0 0.155 0 0.296-0.060 0.402-0.157l-0 0v-0.388h-0.426v0.166zM7.337 30.998h-0.199v0.985h0.689v-0.167h-0.49v-0.817zM9.426 30.998h-0.199v0.985h0.199v-0.985zM11.469 31.655l-0.404-0.657h-0.193v0.985h0.185v-0.643l0.396 0.643h0.198v-0.985h-0.182v0.658zM13.315 31.549h0.49v-0.167h-0.49v-0.215h0.527v-0.168h-0.727v0.985h0.747v-0.167h-0.548v-0.266zM17.792 31.386h-0.388v-0.388h-0.197v0.984h0.197v-0.431h0.388v0.431h0.198v-0.985h-0.198v0.388zM19.649 31.549h0.492v-0.167h-0.492v-0.215h0.529v-0.168h-0.726v0.985h0.746v-0.167h-0.548v-0.266zM22.168 31.55c0.171-0.027 0.258-0.118 0.258-0.274 0.001-0.008 0.002-0.018 0.002-0.028 0-0.079-0.038-0.148-0.098-0.191l-0.001-0c-0.073-0.037-0.159-0.059-0.25-0.059-0.014 0-0.027 0-0.040 0.001l0.002-0h-0.417v0.984h0.198v-0.412h0.039c0.005-0 0.010-0 0.016-0 0.039 0 0.076 0.008 0.109 0.023l-0.002-0.001c0.029 0.018 0.053 0.042 0.070 0.072l0.215 0.313h0.236l-0.12-0.192c-0.054-0.096-0.128-0.175-0.215-0.235l-0.002-0.002zM21.969 31.413h-0.146v-0.247h0.156c0.012-0.001 0.027-0.002 0.042-0.002 0.057 0 0.111 0.009 0.163 0.026l-0.004-0.001c0.026 0.024 0.043 0.058 0.043 0.096 0 0.042-0.020 0.080-0.052 0.104l-0 0c-0.049 0.016-0.106 0.025-0.164 0.025-0.013 0-0.026-0-0.039-0.001l0.002 0zM24.068 31.549h0.49v-0.167h-0.49v-0.215h0.529v-0.168h-0.729v0.985h0.747v-0.167h-0.548v-0.266z"></path>
</symbol>
<symbol id="icon-group-4" viewBox="0 0 34 32">
<path fill="#afb1b8" style="fill: var(--color3, #afb1b8)" d="M5.643 31.315c0.012 0 0.024 0.003 0.035 0.008s0.021 0.011 0.030 0.018l-0-0 0.166 0.158c-0.13 0.129-0.289 0.232-0.468 0.302-0.184 0.069-0.397 0.109-0.62 0.109-0.015 0-0.030-0-0.045-0.001l0.002 0c-0.213 0.004-0.425-0.030-0.622-0.101-0.182-0.066-0.338-0.163-0.47-0.286l0.001 0.001c-0.128-0.121-0.231-0.268-0.301-0.432l-0.003-0.008c-0.067-0.162-0.106-0.35-0.106-0.548 0-0.006 0-0.012 0-0.018v0.001c-0-0.009-0-0.019-0-0.029 0-0.388 0.168-0.737 0.436-0.977l0.001-0.001c0.142-0.124 0.312-0.222 0.498-0.287 0.205-0.069 0.423-0.103 0.642-0.101 0.012-0 0.026-0 0.040-0 0.199 0 0.39 0.034 0.568 0.096l-0.012-0.004c0.165 0.062 0.316 0.149 0.447 0.255l-0.139 0.169c-0.010 0.012-0.022 0.022-0.035 0.030l-0.001 0c-0.014 0.008-0.031 0.013-0.048 0.013-0.003 0-0.005-0-0.008-0l0 0c-0.023-0.001-0.043-0.007-0.062-0.018l0.001 0-0.074-0.046-0.104-0.058c-0.095-0.046-0.205-0.081-0.321-0.1l-0.007-0.001c-0.069-0.012-0.149-0.018-0.23-0.018-0.006 0-0.013 0-0.019 0h0.001c-0.005-0-0.010-0-0.015-0-0.16 0-0.313 0.028-0.455 0.079l0.009-0.003c-0.14 0.049-0.26 0.122-0.363 0.214l0.001-0.001c-0.104 0.098-0.183 0.213-0.235 0.339-0.054 0.128-0.085 0.276-0.085 0.432 0 0.006 0 0.011 0 0.017v-0.001c-0 0.006-0 0.012-0 0.019 0 0.157 0.031 0.307 0.088 0.444l-0.003-0.008c0.051 0.125 0.13 0.239 0.231 0.338 0.095 0.091 0.213 0.164 0.345 0.21 0.136 0.049 0.281 0.073 0.427 0.072 0.085 0.001 0.17-0.004 0.254-0.014 0.211-0.022 0.4-0.106 0.55-0.234l-0.001 0.001c0.021-0.017 0.049-0.028 0.078-0.029h0zM10.441 30.517c0 0.005 0 0.011 0 0.017 0 0.197-0.041 0.384-0.116 0.553l0.003-0.009c-0.074 0.172-0.18 0.317-0.311 0.435l-0.001 0.001c-0.138 0.123-0.302 0.22-0.481 0.283l-0.010 0.003c-0.189 0.064-0.406 0.101-0.632 0.101s-0.443-0.037-0.646-0.105l0.014 0.004c-0.188-0.067-0.351-0.165-0.489-0.288l0.001 0.001c-0.133-0.12-0.24-0.267-0.313-0.432l-0.003-0.008c-0.071-0.166-0.112-0.359-0.112-0.562s0.041-0.396 0.116-0.572l-0.004 0.010c0.071-0.165 0.178-0.315 0.316-0.442 0.139-0.121 0.305-0.215 0.488-0.277 0.188-0.065 0.406-0.103 0.632-0.103s0.443 0.038 0.646 0.107l-0.014-0.004c0.184 0.065 0.351 0.162 0.49 0.286 0.137 0.126 0.244 0.274 0.314 0.435 0.077 0.181 0.115 0.373 0.112 0.565zM10.005 30.517c0-0.007 0-0.015 0-0.024 0-0.154-0.029-0.301-0.082-0.436l0.003 0.008c-0.101-0.26-0.308-0.459-0.566-0.548l-0.007-0.002c-0.137-0.047-0.295-0.074-0.459-0.074s-0.322 0.027-0.469 0.077l0.010-0.003c-0.136 0.049-0.254 0.121-0.352 0.214l0-0c-0.097 0.092-0.174 0.205-0.223 0.331l-0.002 0.006c-0.050 0.134-0.079 0.289-0.079 0.451s0.029 0.317 0.082 0.46l-0.003-0.009c0.101 0.261 0.309 0.46 0.569 0.547l0.007 0.002c0.296 0.097 0.622 0.097 0.918 0 0.133-0.046 0.253-0.119 0.35-0.211 0.1-0.098 0.175-0.213 0.222-0.338 0.056-0.145 0.082-0.298 0.079-0.451zM13.715 30.99l0.043 0.101c0.017-0.036 0.031-0.069 0.048-0.101 0.019-0.039 0.037-0.072 0.056-0.103l-0.002 0.004 1.061-1.677c0.021-0.029 0.040-0.047 0.061-0.053s0.047-0.009 0.073-0.009c0.005 0 0.010 0 0.015 0l-0.001-0h0.314v2.728h-0.372v-2.090c-0.001-0.014-0.002-0.031-0.002-0.047s0.001-0.033 0.002-0.049l-0 0.002-1.069 1.701c-0.015 0.026-0.036 0.047-0.062 0.061l-0.001 0c-0.026 0.014-0.057 0.023-0.090 0.023-0.001 0-0.001 0-0.002 0h-0.060c-0.001 0-0.001 0-0.002 0-0.033 0-0.063-0.008-0.090-0.023l0.001 0c-0.026-0.014-0.047-0.035-0.061-0.061l-0-0.001-1.099-1.711v2.189h-0.359v-2.722h0.313c0.004-0 0.009-0 0.015-0 0.026 0 0.051 0.003 0.075 0.010l-0.002-0c0.026 0.011 0.046 0.030 0.058 0.053l1.084 1.678c0.020 0.028 0.038 0.060 0.053 0.094l0.001 0.004zM17.71 30.855v1.021h-0.414v-2.723h0.926c0.175-0.003 0.349 0.018 0.517 0.059 0.134 0.034 0.259 0.091 0.366 0.17 0.089 0.070 0.159 0.16 0.205 0.262l0.002 0.004c0.050 0.111 0.073 0.23 0.071 0.349 0 0.005 0 0.011 0 0.017 0 0.246-0.117 0.465-0.299 0.603l-0.002 0.001c-0.107 0.082-0.232 0.143-0.368 0.18-0.14 0.040-0.301 0.064-0.468 0.064-0.012 0-0.023-0-0.035-0l-0.501-0.008zM17.71 30.562h0.503c0.109 0.002 0.218-0.013 0.322-0.041 0.089-0.026 0.166-0.066 0.234-0.119l-0.002 0.001c0.117-0.097 0.191-0.241 0.191-0.404 0-0.002 0-0.004-0-0.007v0c0.001-0.009 0.001-0.019 0.001-0.029 0-0.070-0.015-0.136-0.043-0.195l0.001 0.003c-0.035-0.074-0.084-0.136-0.144-0.185l-0.001-0.001c-0.139-0.093-0.31-0.149-0.493-0.149-0.023 0-0.046 0.001-0.069 0.003l0.003-0h-0.503v1.122zM23.294 31.88h-0.328c-0.002 0-0.004 0-0.006 0-0.032 0-0.061-0.009-0.086-0.026l0.001 0c-0.023-0.016-0.042-0.037-0.054-0.062l-0-0.001-0.282-0.658h-1.419l-0.293 0.658c-0.026 0.053-0.079 0.088-0.141 0.088-0.001 0-0.003-0-0.004-0h-0.329l1.246-2.728h0.432l1.263 2.728zM21.237 30.867h1.172l-0.494-1.11c-0.038-0.084-0.069-0.169-0.094-0.256l-0.048 0.142c-0.014 0.043-0.030 0.084-0.046 0.116l-0.49 1.108zM25.089 29.166c0.024 0.011 0.046 0.028 0.062 0.048l1.818 2.056v-2.117h0.372v2.728h-0.207c-0.001 0-0.003 0-0.005 0-0.029 0-0.057-0.006-0.082-0.017l0.001 0c-0.026-0.013-0.048-0.030-0.066-0.050l-0-0-1.816-2.054c0.001 0.014 0.001 0.030 0.001 0.047s-0.001 0.033-0.002 0.049l0-0.002v2.027h-0.372v-2.728h0.22c0.025 0 0.051 0.005 0.075 0.013zM30.402 30.795v1.083h-0.415v-1.082l-1.149-1.643h0.372c0.003-0 0.006-0 0.009-0 0.030 0 0.057 0.009 0.081 0.023l-0.001-0c0.023 0.018 0.042 0.039 0.056 0.062l0.718 1.060c0.029 0.046 0.054 0.087 0.075 0.126s0.038 0.078 0.053 0.115l0.053-0.117c0.021-0.043 0.044-0.084 0.071-0.124l0.709-1.067c0.015-0.022 0.033-0.041 0.053-0.058l0-0c0.023-0.017 0.051-0.027 0.082-0.027 0.003 0 0.006 0 0.008 0l-0-0h0.376l-1.15 1.65zM13.509 24.576c0.181 0.020 0.363 0.036 0.549 0.050 2.803-1.090 5.174-2.872 6.818-5.126s2.485-4.878 2.421-7.546l-3.090-2.683c0.629 2.84 0.335 5.775-0.848 8.478s-3.208 5.067-5.849 6.827z"></path>
<path fill="#afb1b8" style="fill: var(--color3, #afb1b8)" d="M12.407 24.451l0.083 0.015c2.822-1.755 4.973-4.203 6.176-7.031s1.402-5.904 0.571-8.83l-4.4-3.822c1.779 3.142 2.496 6.659 2.065 10.141-0.43 3.482-1.989 6.786-4.495 9.528zM27.328 15.106c-0.747 2.931-2.563 5.574-5.177 7.538-0.714 0.543-1.519 1.053-2.367 1.49l-0.092 0.043c2.129-0.543 4.085-1.504 5.718-2.808s2.901-2.917 3.703-4.714l-1.784-1.549z"></path>
<path fill="#afb1b8" style="fill: var(--color3, #afb1b8)" d="M26.628 14.674l-2.54-2.207c-0.049 2.517-0.872 4.976-2.385 7.122s-3.66 3.902-6.217 5.084h0.012c0.57 0 1.139-0.030 1.705-0.088 2.39-0.848 4.502-2.197 6.146-3.926s2.771-3.785 3.278-5.985zM12.774 3.17l-3.031-2.636c-2.709 0.91-5.039 2.509-6.686 4.588s-2.531 4.542-2.539 7.066c0.010 2.789 1.090 5.495 3.070 7.69 1.979 2.194 4.744 3.754 7.858 4.43 2.779-2.942 4.407-6.578 4.646-10.379s-0.924-7.57-3.319-10.758zM33.63 14.268c-0.011-3.308-1.528-6.478-4.221-8.818s-6.342-3.658-10.15-3.668c-0.008 0-0.018-0-0.028-0-1.831 0-3.59 0.305-5.231 0.867l0.114-0.034 18.556 16.122c0.605-1.313 0.958-2.849 0.96-4.468v-0.001z"></path>
</symbol>
<symbol id="icon-group-5" viewBox="0 0 43 32">
<path fill="#afb1b8" style="fill: var(--color3, #afb1b8)" d="M3.239 26.373c0.166 0.188 0.254 0.424 0.25 0.665 0.001 0.015 0.001 0.033 0.001 0.050 0 0.149-0.033 0.29-0.093 0.416l0.003-0.006c-0.072 0.152-0.172 0.279-0.296 0.378l-0.002 0.002c-0.282 0.194-0.631 0.31-1.007 0.31-0.041 0-0.082-0.001-0.123-0.004l0.006 0h-1.977v-4.214h1.936c0.034-0.002 0.074-0.004 0.115-0.004 0.356 0 0.688 0.106 0.965 0.287l-0.007-0.004c0.125 0.097 0.225 0.218 0.289 0.354 0.065 0.138 0.095 0.286 0.086 0.436 0.011 0.232-0.068 0.461-0.225 0.644-0.15 0.168-0.358 0.283-0.59 0.33 0.262 0.044 0.499 0.172 0.667 0.361zM0.92 25.737h0.828c0.188 0.012 0.374-0.037 0.526-0.14 0.060-0.050 0.108-0.113 0.14-0.184l0.001-0.003c0.024-0.054 0.038-0.118 0.038-0.185 0-0.014-0.001-0.028-0.002-0.042l0 0.002c0.001-0.011 0.001-0.023 0.001-0.036 0-0.068-0.014-0.133-0.040-0.191l0.001 0.003c-0.033-0.075-0.079-0.137-0.138-0.187l-0.001-0.001c-0.134-0.091-0.298-0.145-0.476-0.145-0.023 0-0.046 0.001-0.069 0.003l0.003-0h-0.815v1.106zM2.355 27.353c0.065-0.051 0.116-0.116 0.151-0.19l0.001-0.003c0.028-0.059 0.044-0.128 0.044-0.202 0-0.012-0-0.023-0.001-0.035l0 0.002c0.001-0.009 0.001-0.020 0.001-0.031 0-0.075-0.017-0.147-0.047-0.21l0.001 0.003c-0.037-0.078-0.090-0.143-0.154-0.193l-0.001-0.001c-0.142-0.097-0.318-0.154-0.507-0.154-0.019 0-0.039 0.001-0.058 0.002l0.003-0h-0.868v1.16h0.88c0.197 0.010 0.394-0.041 0.556-0.146zM7.197 28.185l-1.076-1.648h-0.405v1.648h-0.927v-4.215h1.755c0.037-0.003 0.081-0.004 0.125-0.004 0.413 0 0.794 0.136 1.1 0.366l-0.005-0.003c0.245 0.229 0.394 0.53 0.417 0.85 0.002 0.026 0.003 0.057 0.003 0.088 0 0.307-0.109 0.589-0.291 0.808l0.002-0.002c-0.218 0.224-0.506 0.378-0.829 0.427l-0.008 0.001 1.147 1.684h-1.008zM5.715 25.963h0.758c0.526 0 0.79-0.212 0.79-0.638 0.001-0.010 0.001-0.022 0.001-0.034 0-0.080-0.016-0.156-0.045-0.225l0.001 0.004c-0.036-0.086-0.087-0.159-0.15-0.218l-0-0c-0.144-0.109-0.326-0.174-0.523-0.174-0.026 0-0.051 0.001-0.077 0.003l0.003-0h-0.767l0.009 1.283zM12.262 27.336h-1.846l-0.326 0.849h-0.972l1.695-4.168h1.051l1.689 4.168h-0.971l-0.319-0.848zM12.015 26.698l-0.675-1.779-0.675 1.779h1.349zM18.602 28.185h-0.919l-2.063-2.866v2.866h-0.918v-4.216h0.918l2.063 2.883v-2.883h0.919v4.216zM23.852 27.176c-0.191 0.318-0.48 0.577-0.833 0.744-0.358 0.168-0.777 0.267-1.219 0.267-0.026 0-0.053-0-0.079-0.001l0.004 0h-1.637v-4.215h1.637c0.023-0.001 0.050-0.001 0.077-0.001 0.441 0 0.859 0.096 1.235 0.267l-0.019-0.008c0.352 0.163 0.642 0.419 0.832 0.735 0.189 0.343 0.288 0.722 0.288 1.106s-0.099 0.763-0.288 1.106zM22.8 27.075c0.25-0.261 0.404-0.616 0.406-1.006v-0c0-0.369-0.144-0.726-0.406-1.006-0.285-0.226-0.65-0.362-1.047-0.362-0.037 0-0.074 0.001-0.11 0.004l0.005-0h-0.639v2.729h0.639c0.032 0.002 0.069 0.003 0.106 0.003 0.396 0 0.761-0.136 1.050-0.364l-0.004 0.003zM12.838 0.522s11.873 4.104 11.621 10.043v10.045s-11.864-4.106-11.617-10.045l-0.004-10.043zM35.037 18.259c2.243-1.413 4.836-2.288 7.544-2.545v-3.146c-3.12 1.102-5.767 3.098-7.544 5.691z"></path>
<path fill="#afb1b8" style="fill: var(--color3, #afb1b8)" d="M33.69 19.207c1.835-3.384 5.017-5.995 8.891-7.297v-9.061s-16.909 5.846-16.552 14.304v14.302s0.754-0.261 1.939-0.752c0-0.457 0-0.918 0.054-1.382 0.349-3.926 2.388-7.564 5.667-10.115z"></path>
<path fill="#afb1b8" style="fill: var(--color3, #afb1b8)" d="M32.082 24.52c0.089-0.992 0.287-1.973 0.592-2.928-2.043 2.203-3.279 4.936-3.536 7.816-0.025 0.272-0.039 0.543-0.045 0.824 1.41-0.617 2.478-1.142 3.524-1.703l-0.273 0.133c-0.3-1.362-0.388-2.757-0.263-4.142zM32.754 24.571c-0.033 0.348-0.052 0.752-0.052 1.161 0 0.917 0.095 1.811 0.276 2.674l-0.015-0.084c4.62-2.531 9.811-6.442 9.61-11.168v-0.412c-3.301 0.338-6.388 1.659-8.79 3.76-0.53 1.19-0.895 2.571-1.026 4.019l-0.004 0.051z"></path>
</symbol>
<symbol id="icon-group-6" viewBox="0 0 28 32">
<path fill="#afb1b8" style="fill: var(--color3, #afb1b8)" d="M4.085 0l4.771 4.517-8.857-0.005v21.915h23.149v-8.379l4.766 4.512v-22.559h-23.83zM22.939 17.517l-13.528-12.807h13.528v12.807zM18.739 23.22h-15.076v-14.738h1.066v13.74h14.011v0.997zM7.224 29.345l-0.557 1.147-0.557-1.147h-0.467l0.813 1.529v0.891h0.422v-0.891l0.811-1.529h-0.465zM7.924 31.765l0.196-0.564h0.938l0.197 0.564h0.439l-0.916-2.42h-0.378l-0.914 2.42h0.437zM8.588 29.859l0.351 1.004h-0.701l0.351-1.004zM10.806 30.804c-0.057 0.085-0.091 0.19-0.091 0.303 0 0.001 0 0.003 0 0.004v-0c0 0.204 0.072 0.37 0.214 0.497s0.336 0.19 0.575 0.19c0.239 0 0.445-0.065 0.618-0.195l0.136 0.161h0.468l-0.355-0.421c0.14-0.191 0.209-0.435 0.209-0.733h-0.351c0 0.163-0.034 0.311-0.101 0.444l-0.468-0.552 0.165-0.12c0.1-0.068 0.184-0.152 0.249-0.249l0.002-0.003c0.048-0.079 0.076-0.174 0.076-0.275 0-0.001 0-0.003-0-0.004v0c0-0.003 0-0.006 0-0.009 0-0.149-0.065-0.283-0.169-0.374l-0.001-0c-0.108-0.097-0.251-0.157-0.408-0.157-0.008 0-0.017 0-0.025 0l0.001-0c-0.195 0-0.35 0.056-0.465 0.166s-0.173 0.259-0.173 0.449c0 0.078 0.018 0.157 0.054 0.241 0.038 0.083 0.104 0.184 0.197 0.302-0.179 0.129-0.3 0.24-0.36 0.334zM11.898 31.34c-0.104 0.084-0.237 0.135-0.382 0.136h-0c-0.006 0-0.013 0-0.020 0-0.104 0-0.199-0.040-0.27-0.106l0 0c-0.067-0.066-0.108-0.157-0.108-0.259 0-0.005 0-0.009 0-0.014l-0 0.001c0-0.129 0.067-0.245 0.2-0.346l0.052-0.037 0.528 0.624zM11.464 30.267c-0.114-0.141-0.172-0.257-0.172-0.351 0-0.081 0.024-0.148 0.070-0.201 0.044-0.049 0.107-0.081 0.178-0.081 0.004 0 0.007 0 0.010 0l-0.001-0c0.003-0 0.006-0 0.009-0 0.067 0 0.127 0.026 0.173 0.068l-0-0c0.048 0.045 0.072 0.099 0.072 0.161 0 0.003 0 0.006 0 0.009 0 0.090-0.040 0.171-0.103 0.226l-0 0-0.052 0.041-0.184 0.127zM15.404 31.582c0.166-0.145 0.261-0.347 0.286-0.605h-0.419c-0.022 0.173-0.075 0.296-0.158 0.37s-0.208 0.112-0.372 0.112c-0.18 0-0.318-0.069-0.412-0.206s-0.14-0.337-0.14-0.599v-0.214c0.003-0.259 0.052-0.453 0.15-0.587 0.099-0.134 0.24-0.201 0.422-0.201 0.157 0 0.276 0.039 0.357 0.116s0.133 0.202 0.153 0.376h0.419c-0.027-0.265-0.121-0.47-0.285-0.615s-0.378-0.218-0.645-0.218c-0.198 0-0.373 0.048-0.525 0.142-0.152 0.097-0.271 0.234-0.345 0.396l-0.002 0.006c-0.077 0.169-0.122 0.367-0.122 0.576 0 0.010 0 0.020 0 0.030l-0-0.001v0.226c0.003 0.223 0.045 0.418 0.125 0.587s0.193 0.298 0.339 0.39c0.148 0.091 0.318 0.136 0.511 0.136 0.276 0 0.497-0.072 0.663-0.216zM17.875 31.243c0.082-0.18 0.123-0.388 0.123-0.625v-0.134c0-0.007 0-0.016 0-0.024 0-0.216-0.047-0.421-0.131-0.605l0.004 0.009c-0.077-0.171-0.199-0.31-0.35-0.406l-0.004-0.002c-0.152-0.095-0.326-0.143-0.524-0.143s-0.372 0.048-0.525 0.144c-0.152 0.095-0.27 0.233-0.354 0.414-0.079 0.175-0.125 0.38-0.125 0.595 0 0.011 0 0.021 0 0.032l-0-0.002v0.136c0.001 0.232 0.043 0.436 0.126 0.613 0.084 0.178 0.203 0.315 0.356 0.411 0.154 0.095 0.329 0.143 0.525 0.143 0.199 0 0.374-0.048 0.526-0.143 0.152-0.097 0.27-0.234 0.352-0.413zM17.425 29.874c0.102 0.143 0.152 0.349 0.152 0.618v0.126c0 0.272-0.050 0.48-0.151 0.622-0.099 0.142-0.242 0.213-0.429 0.213-0.005 0-0.011 0-0.017 0-0.171 0-0.323-0.086-0.413-0.216l-0.001-0.002c-0.104-0.145-0.155-0.351-0.155-0.617v-0.14c0.002-0.26 0.054-0.462 0.156-0.603 0.091-0.13 0.24-0.215 0.409-0.215 0.006 0 0.012 0 0.018 0l-0.001-0c0.187 0 0.33 0.072 0.431 0.214z"></path>
</symbol>
<symbol id="icon-group-7" viewBox="0 0 65 32">
<path fill="#2196f3" style="fill: var(--color2, #2196f3)" d="M10.016 9.983h-0.002c-1.827 0-3.308 1.316-3.308 2.94v0.002c0 1.624 1.481 2.94 3.308 2.94h0.002c1.827 0 3.308-1.317 3.308-2.94v-0.002c0-1.624-1.481-2.941-3.308-2.941zM34.434 9.044c-0.005-2.255-1.016-4.418-2.81-6.012s-4.226-2.493-6.763-2.498c-2.539 0.004-4.972 0.902-6.767 2.497s-2.806 3.757-2.811 6.013v12.437s19.15-1.896 19.152-12.434v-0.002zM0 25.562c0.005 1.57 0.709 3.073 1.957 4.183s2.94 1.735 4.706 1.739c1.765-0.005 3.457-0.63 4.706-1.739s1.952-2.613 1.957-4.181v-8.654s-13.324 1.32-13.324 8.652zM6.662 27.112c-0.345 0-0.682-0.091-0.969-0.261-0.279-0.164-0.499-0.401-0.638-0.686l-0.004-0.009c-0.084-0.173-0.132-0.377-0.132-0.592 0-0.107 0.012-0.212 0.035-0.312l-0.002 0.009c0.067-0.301 0.233-0.578 0.477-0.794 0.243-0.214 0.547-0.364 0.882-0.423l0.011-0.002c0.103-0.019 0.221-0.030 0.341-0.030 0.239 0 0.469 0.043 0.68 0.122l-0.013-0.004c0.319 0.117 0.592 0.316 0.783 0.571s0.294 0.555 0.294 0.861c0.001 0.204-0.043 0.407-0.131 0.596-0.094 0.198-0.221 0.366-0.376 0.503l-0.002 0.001c-0.162 0.145-0.354 0.259-0.567 0.338-0.199 0.075-0.428 0.119-0.668 0.119-0 0-0.001 0-0.001 0h0v-0.006zM20.128 26.258h-1.286v1.328h-0.67v-3.251h2.117v0.542h-1.447v0.84h1.286v0.54zM23.346 26.035c0 0.32-0.056 0.6-0.169 0.841s-0.276 0.427-0.488 0.558c-0.199 0.124-0.44 0.197-0.698 0.197-0.008 0-0.017-0-0.025-0l0.001 0c-0.27 0-0.51-0.065-0.722-0.194-0.213-0.134-0.382-0.322-0.487-0.546l-0.003-0.008c-0.112-0.236-0.177-0.512-0.177-0.804 0-0.009 0-0.019 0-0.028l-0 0.001v-0.16c0-0.32 0.058-0.602 0.172-0.844 0.116-0.244 0.279-0.431 0.489-0.56 0.211-0.131 0.452-0.197 0.723-0.197s0.51 0.066 0.721 0.197c0.211 0.13 0.374 0.316 0.489 0.56 0.116 0.242 0.174 0.523 0.174 0.841v0.145zM22.668 25.887c0-0.341-0.061-0.6-0.183-0.777-0.108-0.161-0.29-0.266-0.496-0.266-0.009 0-0.018 0-0.028 0.001l0.001-0c-0.008-0-0.016-0.001-0.025-0.001-0.205 0-0.387 0.104-0.494 0.262l-0.001 0.002c-0.122 0.174-0.184 0.43-0.185 0.768v0.158c0 0.331 0.061 0.589 0.183 0.772s0.297 0.274 0.527 0.274c0.008 0 0.017 0.001 0.026 0.001 0.204 0 0.384-0.104 0.49-0.261l0.001-0.002c0.12-0.177 0.181-0.434 0.183-0.773v-0.158zM25.518 26.733c0-0.006 0.001-0.012 0.001-0.019 0-0.11-0.052-0.208-0.133-0.27l-0.001-0.001c-0.089-0.069-0.25-0.14-0.482-0.214-0.214-0.067-0.396-0.142-0.57-0.232l0.019 0.009c-0.37-0.2-0.554-0.469-0.554-0.806 0-0.175 0.049-0.332 0.147-0.469 0.1-0.139 0.242-0.246 0.427-0.324 0.186-0.077 0.395-0.116 0.625-0.116 0.232 0 0.439 0.042 0.621 0.127 0.181 0.084 0.322 0.201 0.421 0.355 0.101 0.152 0.152 0.328 0.152 0.522h-0.67c0-0.149-0.046-0.264-0.14-0.346-0.094-0.084-0.226-0.125-0.395-0.125-0.164 0-0.291 0.035-0.382 0.105-0.083 0.060-0.136 0.156-0.136 0.265 0 0.003 0 0.005 0 0.008v-0c0 0.106 0.053 0.194 0.158 0.266 0.107 0.071 0.264 0.138 0.471 0.2 0.381 0.114 0.658 0.257 0.833 0.427s0.261 0.381 0.261 0.634c0 0.281-0.107 0.503-0.32 0.663s-0.498 0.239-0.859 0.239c-0.25 0-0.478-0.046-0.683-0.137-0.193-0.082-0.352-0.211-0.469-0.373l-0.002-0.003c-0.1-0.15-0.16-0.335-0.16-0.533 0-0.007 0-0.014 0-0.022l-0 0.001h0.671c0 0.358 0.214 0.538 0.643 0.538 0.159 0 0.283-0.032 0.373-0.096 0.081-0.058 0.134-0.153 0.134-0.259 0-0.004-0-0.009-0-0.013l0 0.001zM29.092 24.878h-0.995v2.708h-0.67v-2.708h-0.981v-0.542h2.647v0.542zM31.431 26.178h-1.285v0.871h1.509v0.538h-2.178v-3.251h2.174v0.542h-1.505v0.775h1.286v0.524zM33.25 26.396h-0.533v1.19h-0.67v-3.251h1.208c0.384 0 0.68 0.086 0.888 0.257s0.312 0.413 0.312 0.725c0 0.222-0.048 0.408-0.145 0.556-0.108 0.156-0.255 0.278-0.429 0.35l-0.006 0.002 0.702 1.328v0.030h-0.718l-0.61-1.189zM32.717 25.854h0.541c0.168 0 0.297-0.042 0.39-0.126 0.086-0.084 0.139-0.201 0.139-0.33 0-0.009-0-0.017-0.001-0.026l0 0.001c0-0.154-0.043-0.274-0.131-0.362s-0.219-0.132-0.4-0.132h-0.538v0.975zM36.775 26.441v1.145h-0.67v-3.251h1.268c0.244 0 0.459 0.045 0.643 0.134 0.186 0.089 0.329 0.216 0.429 0.382 0.099 0.164 0.149 0.35 0.149 0.56 0 0.318-0.11 0.57-0.328 0.754-0.218 0.183-0.519 0.275-0.904 0.275h-0.587zM36.775 25.899h0.598c0.178 0 0.312-0.042 0.404-0.125 0.094-0.084 0.141-0.203 0.141-0.357 0-0.007 0.001-0.016 0.001-0.024 0-0.14-0.053-0.267-0.141-0.363l0 0c-0.094-0.098-0.223-0.149-0.389-0.152h-0.614v1.021zM41.011 26.178h-1.285v0.871h1.509v0.538h-2.178v-3.251h2.174v0.542h-1.505v0.775h1.286v0.524zM44.119 24.878h-0.996v2.708h-0.67v-2.708h-0.982v-0.542h2.648v0.542zM46.458 26.178h-1.285v0.871h1.509v0.538h-2.179v-3.251h2.174v0.542h-1.504v0.775h1.285v0.524zM48.277 26.396h-0.533v1.19h-0.67v-3.251h1.208c0.384 0 0.68 0.086 0.888 0.257s0.312 0.413 0.312 0.725c0 0.222-0.049 0.408-0.145 0.556-0.108 0.156-0.256 0.278-0.429 0.35l-0.006 0.002 0.703 1.328v0.030h-0.718l-0.61-1.189zM47.744 25.854h0.54c0.168 0 0.298-0.042 0.39-0.126 0.086-0.084 0.139-0.201 0.139-0.331 0-0.009-0-0.017-0.001-0.025l0 0.001c0-0.154-0.043-0.274-0.132-0.362-0.086-0.088-0.219-0.132-0.399-0.132h-0.538v0.975zM51.679 26.734c0-0.006 0.001-0.012 0.001-0.019 0-0.11-0.052-0.208-0.134-0.271l-0.001-0.001c-0.089-0.069-0.25-0.14-0.482-0.214-0.214-0.067-0.396-0.142-0.57-0.232l0.019 0.009c-0.37-0.2-0.554-0.469-0.554-0.806 0-0.175 0.050-0.332 0.147-0.469 0.1-0.139 0.242-0.246 0.427-0.324 0.186-0.077 0.395-0.116 0.625-0.116 0.232 0 0.439 0.042 0.621 0.127 0.181 0.084 0.322 0.201 0.421 0.355 0.101 0.152 0.152 0.328 0.152 0.522h-0.67c0-0.149-0.046-0.264-0.14-0.346-0.094-0.084-0.226-0.125-0.395-0.125-0.164 0-0.291 0.035-0.382 0.105-0.083 0.060-0.137 0.156-0.137 0.265 0 0.002 0 0.005 0 0.007v-0c0 0.106 0.053 0.194 0.159 0.266s0.264 0.138 0.471 0.2c0.381 0.114 0.658 0.257 0.833 0.427s0.261 0.381 0.261 0.634c0 0.281-0.107 0.503-0.32 0.663s-0.499 0.239-0.859 0.239c-0.25 0-0.478-0.046-0.683-0.137-0.193-0.082-0.352-0.211-0.469-0.373l-0.002-0.003c-0.1-0.15-0.16-0.335-0.16-0.533 0-0.007 0-0.014 0-0.022l-0 0.001h0.671c0 0.358 0.214 0.538 0.643 0.538 0.159 0 0.283-0.032 0.373-0.096 0.082-0.058 0.134-0.153 0.134-0.26 0-0.004-0-0.009-0-0.013l0 0.001z"></path>
</symbol>
<symbol id="icon-instagram-2" viewBox="0 0 32 32">
<path fill="#fff" style="fill: var(--color5, #fff)" d="M31.968 9.408c-0.074-1.701-0.349-2.869-0.742-3.882-0.424-1.111-1.054-2.059-1.85-2.837l-0.001-0.001c-0.78-0.792-1.724-1.419-2.778-1.827l-0.054-0.018c-1.019-0.394-2.181-0.667-3.882-0.742-1.712-0.082-2.256-0.101-6.602-0.101-4.344 0-4.888 0.019-6.595 0.094-1.699 0.074-2.869 0.349-3.88 0.742-1.112 0.424-2.060 1.054-2.839 1.85l-0.001 0.001c-0.791 0.78-1.418 1.724-1.825 2.778l-0.018 0.054c-0.395 1.019-0.669 2.181-0.744 3.882-0.082 1.712-0.101 2.256-0.101 6.602 0 4.344 0.019 4.888 0.094 6.595 0.075 1.701 0.35 2.869 0.744 3.882 0.426 1.11 1.055 2.057 1.849 2.837l0.001 0.001c0.8 0.813 1.77 1.443 2.832 1.843 1.019 0.395 2.182 0.67 3.882 0.744 1.707 0.075 2.251 0.094 6.595 0.094 4.346 0 4.89-0.019 6.595-0.094 1.701-0.074 2.869-0.349 3.882-0.742 2.157-0.85 3.833-2.526 4.664-4.628l0.019-0.055c0.394-1.019 0.669-2.182 0.744-3.882 0.075-1.707 0.093-2.251 0.093-6.595s-0.006-4.888-0.080-6.595zM29.088 22.474c-0.070 1.563-0.333 2.406-0.55 2.97-0.552 1.399-1.64 2.486-3.004 3.024l-0.036 0.012c-0.56 0.219-1.411 0.482-2.968 0.55-1.688 0.075-2.194 0.094-6.464 0.094-4.269 0-4.782-0.019-6.464-0.094-1.563-0.069-2.406-0.331-2.97-0.55-0.721-0.269-1.334-0.676-1.836-1.192l-0.001-0.001c-0.517-0.503-0.924-1.117-1.184-1.803l-0.011-0.034c-0.218-0.563-0.48-1.413-0.549-2.97-0.075-1.688-0.094-2.195-0.094-6.464 0-4.27 0.019-4.784 0.094-6.464 0.069-1.563 0.331-2.406 0.549-2.97 0.269-0.722 0.678-1.337 1.198-1.837l0.002-0.002c0.504-0.517 1.119-0.923 1.806-1.182l0.034-0.011c0.56-0.219 1.411-0.48 2.968-0.55 1.688-0.074 2.195-0.093 6.464-0.093 4.275 0 4.782 0.019 6.464 0.093 1.563 0.069 2.406 0.331 2.97 0.55 0.693 0.256 1.325 0.662 1.837 1.194 0.531 0.52 0.938 1.144 1.195 1.84 0.218 0.56 0.48 1.411 0.549 2.968 0.075 1.688 0.094 2.194 0.094 6.464 0 4.269-0.019 4.768-0.094 6.458z"></path>
<path fill="#fff" style="fill: var(--color5, #fff)" d="M16.059 7.782c-4.539 0.002-8.218 3.682-8.219 8.221v0c0 0 0 0.001 0 0.002 0 4.541 3.681 8.222 8.222 8.222s8.222-3.681 8.222-8.222c0-4.541-3.681-8.222-8.222-8.222-0.001 0-0.001 0-0.002 0h0zM16.059 21.334c-2.945-0-5.332-2.388-5.332-5.333s2.388-5.333 5.333-5.333c0 0 0.001 0 0.001 0h-0c2.946 0 5.334 2.388 5.334 5.334s-2.388 5.334-5.334 5.334v0zM26.525 7.458c0 1.060-0.86 1.92-1.92 1.92s-1.92-0.86-1.92-1.92v0c0-1.060 0.86-1.92 1.92-1.92s1.92 0.86 1.92 1.92v0z"></path>
</symbol>
<symbol id="icon-linkedin-1" viewBox="0 0 32 32">
<path fill="#afb1b8" style="fill: var(--color3, #afb1b8)" d="M31.992 32h0.008v-11.738c0-5.741-1.235-10.163-7.947-10.163-3.227 0-5.392 1.77-6.277 3.45h-0.093v-2.914h-6.365v21.363h6.627v-10.578c0-2.786 0.528-5.48 3.978-5.48 3.398 0 3.45 3.179 3.45 5.658v10.402h6.619zM0.528 10.635h6.635v21.365h-6.635v-21.365zM3.843 0c-2.123 0-3.843 1.721-3.843 3.843v0c0 2.12 1.722 3.878 3.843 3.878 2.12 0 3.842-1.757 3.842-3.878s-1.72-3.841-3.841-3.843h-0z"></path>
</symbol>
<symbol id="icon-Object" viewBox="0 0 67 32">
<path fill="#afb1b8" style="fill: var(--color3, #afb1b8)" d="M33.724 15.223c-0.271-0.35-0.435-0.795-0.435-1.278 0-0.048 0.002-0.095 0.005-0.142l-0 0.006v-2.051c0-0.628 0.142-1.106 0.428-1.433 0.284-0.327 0.774-0.489 1.468-0.488 0.652 0 1.116 0.139 1.389 0.417 0.299 0.355 0.444 0.789 0.411 1.226v0.482h-1.166v-0.489c0.004-0.159-0.007-0.319-0.034-0.477-0.020-0.116-0.081-0.214-0.166-0.283l-0.001-0.001c-0.105-0.070-0.234-0.112-0.373-0.112-0.018 0-0.035 0.001-0.052 0.002l0.002-0c-0.015-0.001-0.033-0.002-0.050-0.002-0.147 0-0.283 0.044-0.397 0.12l0.003-0.002c-0.096 0.077-0.166 0.185-0.193 0.309l-0.001 0.004c-0.030 0.14-0.047 0.302-0.047 0.467 0 0.014 0 0.028 0 0.042l-0-0.002v2.488c-0.019 0.24 0.033 0.48 0.149 0.698 0.061 0.075 0.139 0.133 0.23 0.168l0.004 0.001c0.068 0.027 0.148 0.043 0.231 0.043 0.025 0 0.050-0.001 0.074-0.004l-0.003 0c0.015 0.001 0.032 0.002 0.049 0.002 0.136 0 0.262-0.043 0.365-0.116l-0.002 0.001c0.090-0.075 0.153-0.18 0.174-0.299l0-0.003c0.027-0.165 0.040-0.332 0.036-0.498v-0.505h1.167v0.461c0.003 0.036 0.004 0.079 0.004 0.122 0 0.443-0.153 0.85-0.41 1.171l0.003-0.004c-0.268 0.304-0.725 0.457-1.397 0.457s-1.179-0.163-1.466-0.501zM38.583 15.245c-0.295-0.32-0.442-0.784-0.442-1.399v-2.157c0-0.609 0.147-1.070 0.442-1.383s0.787-0.469 1.478-0.467c0.686 0 1.176 0.156 1.471 0.467 0.294 0.313 0.444 0.774 0.444 1.383v2.156c0 0.609-0.149 1.077-0.449 1.398s-0.787 0.481-1.466 0.481-1.181-0.163-1.479-0.479zM40.604 14.727c0.106-0.199 0.154-0.419 0.14-0.638v-2.641c0.001-0.021 0.002-0.046 0.002-0.071 0-0.203-0.052-0.394-0.142-0.561l0.003 0.006c-0.062-0.076-0.142-0.135-0.234-0.17l-0.004-0.001c-0.068-0.027-0.146-0.042-0.229-0.042-0.028 0-0.056 0.002-0.083 0.005l0.003-0c-0.024-0.003-0.051-0.005-0.079-0.005-0.083 0-0.161 0.015-0.234 0.043l0.004-0.002c-0.096 0.036-0.177 0.096-0.239 0.171l-0.001 0.001c-0.107 0.195-0.154 0.41-0.14 0.626v2.652c-0.014 0.22 0.033 0.439 0.14 0.639 0.068 0.067 0.152 0.121 0.246 0.158 0.089 0.036 0.192 0.056 0.3 0.056s0.211-0.021 0.305-0.058l-0.006 0.002c0.095-0.037 0.178-0.091 0.246-0.158v-0.013zM43.381 9.902h1.256l0.944 3.979 0.967-3.979h1.222l0.124 5.743h-0.904l-0.097-3.991-0.932 3.991h-0.725l-0.966-4.006-0.090 4.006h-0.913l0.114-5.743zM49.301 9.902h1.957c1.127 0 1.691 0.543 1.691 1.631 0 1.041-0.594 1.562-1.781 1.56h-0.666v2.552h-1.208l0.007-5.744zM50.973 12.356c0.119 0.014 0.24 0.004 0.356-0.028 0.114-0.031 0.22-0.083 0.309-0.154 0.139-0.194 0.2-0.422 0.174-0.649 0.001-0.019 0.001-0.041 0.001-0.063 0-0.163-0.022-0.321-0.062-0.471l0.003 0.013c-0.019-0.061-0.050-0.114-0.089-0.158l0 0c-0.042-0.047-0.093-0.086-0.149-0.114l-0.003-0.001c-0.141-0.059-0.304-0.094-0.476-0.094-0.022 0-0.044 0.001-0.066 0.002l0.003-0h-0.469v1.717h0.469zM54.692 9.902h1.297l1.331 5.743h-1.126l-0.263-1.324h-1.157l-0.27 1.324h-1.143l1.331-5.743zM55.8 13.655l-0.452-2.411-0.452 2.411h0.903zM58.394 9.902h0.846l1.618 3.276v-3.276h1.003v5.743h-0.804l-1.628-3.42v3.42h-1.036l0.002-5.743zM64.209 13.454l-1.345-3.545h1.133l0.821 2.278 0.77-2.278h1.109l-1.329 3.546v2.19h-1.159v-2.19zM35.59 18.156v0.3h-0.986v2.334h-0.413v-2.334h-0.991v-0.3h2.389zM38.679 20.79h-0.319c-0.003 0-0.006 0-0.009 0-0.030 0-0.058-0.009-0.081-0.025l0 0c-0.023-0.015-0.041-0.035-0.052-0.060l-0-0.001-0.285-0.626h-1.367l-0.284 0.626c-0.009 0.028-0.024 0.052-0.044 0.071l-0 0c-0.023 0.016-0.052 0.025-0.082 0.025-0.003 0-0.005-0-0.008-0h-0.318l1.208-2.634h0.42l1.223 2.624zM36.679 19.812h1.14l-0.484-1.072c-0.031-0.067-0.061-0.15-0.086-0.235l-0.003-0.014c-0.017 0.050-0.031 0.098-0.045 0.14l-0.044 0.11-0.478 1.070zM40.762 20.531c0.076 0.004 0.151 0.004 0.228 0 0.065-0.006 0.129-0.016 0.193-0.031 0.059-0.012 0.117-0.028 0.174-0.048 0.053-0.018 0.107-0.042 0.161-0.065v-0.592h-0.483c-0.001 0-0.003 0-0.004 0-0.023 0-0.044-0.008-0.061-0.022l0 0c-0.008-0.006-0.014-0.013-0.018-0.021l-0-0c-0.004-0.007-0.006-0.015-0.006-0.024 0-0.001 0-0.002 0-0.003v0-0.202h0.937v1.010c-0.147 0.091-0.316 0.165-0.496 0.211l-0.013 0.003c-0.1 0.026-0.2 0.043-0.302 0.055-0.117 0.011-0.235 0.016-0.353 0.016-0.005 0-0.010 0-0.015 0-0.212 0-0.416-0.036-0.606-0.102l0.013 0.004c-0.186-0.065-0.347-0.158-0.486-0.277l0.002 0.002c-0.129-0.114-0.234-0.253-0.308-0.409l-0.003-0.008c-0.070-0.156-0.111-0.338-0.111-0.529 0-0.006 0-0.012 0-0.019v0.001c-0-0.005-0-0.010-0-0.016 0-0.193 0.040-0.377 0.112-0.543l-0.003 0.009c0.069-0.156 0.176-0.299 0.311-0.417 0.138-0.119 0.302-0.211 0.484-0.273 0.206-0.068 0.427-0.101 0.647-0.098 0.112 0 0.225 0.007 0.336 0.023 0.098 0.014 0.195 0.036 0.287 0.067 0.085 0.027 0.166 0.063 0.242 0.105 0.074 0.041 0.144 0.087 0.211 0.137l-0.116 0.163c-0.010 0.015-0.023 0.027-0.039 0.035l-0.001 0c-0.016 0.009-0.035 0.014-0.055 0.014h-0c-0.028-0.001-0.053-0.008-0.075-0.021l0.001 0c-0.049-0.023-0.088-0.044-0.126-0.066l0.007 0.004c-0.045-0.025-0.099-0.049-0.154-0.069l-0.008-0.002c-0.062-0.022-0.136-0.042-0.213-0.057l-0.009-0.001c-0.087-0.015-0.188-0.023-0.29-0.023-0.006 0-0.011 0-0.017 0h0.001c-0.004-0-0.010-0-0.015-0-0.162 0-0.317 0.027-0.462 0.076l0.010-0.003c-0.134 0.046-0.256 0.117-0.356 0.208-0.095 0.090-0.171 0.199-0.222 0.321l-0.002 0.006c-0.051 0.13-0.081 0.281-0.081 0.439s0.030 0.309 0.084 0.448l-0.003-0.008c0.053 0.124 0.135 0.237 0.242 0.332 0.099 0.090 0.219 0.161 0.352 0.208 0.154 0.046 0.316 0.063 0.479 0.052zM44.612 20.49h1.319v0.3h-1.722v-2.634h0.412l-0.009 2.334zM47.303 20.79h-0.412v-2.634h0.412v2.634zM48.84 18.169c0.025 0.012 0.046 0.028 0.063 0.047l0 0 1.766 1.985c-0.001-0.014-0.002-0.030-0.002-0.047s0.001-0.033 0.002-0.049l-0 0.002v-1.963h0.36v2.645h-0.208c-0.004 0-0.009 0-0.014 0-0.027 0-0.054-0.006-0.077-0.016l0.001 0c-0.025-0.013-0.047-0.030-0.065-0.050l-0-0-1.764-1.984v2.048h-0.346v-2.634h0.215c0.023 0 0.047 0.004 0.068 0.012zM54.070 18.156v0.289h-1.463v0.87h1.186v0.279h-1.186v0.9h1.463v0.289h-1.889v-2.628h1.889zM10.782 1.889l18.343 4.496v15.757l-18.343-4.494v-15.76zM9.605 0.545v17.868l20.693 5.075v-17.866l-20.693-5.076z"></path>
<path fill="#afb1b8" style="fill: var(--color3, #afb1b8)" d="M20.696 31.781l-20.696-5.079v-17.865l20.696 5.077v17.867z"></path>
<path fill="#afb1b8" style="fill: var(--color3, #afb1b8)" d="M9.948 1.686l18.103 4.44-7.698 6.649-18.107-4.442 7.702-6.647zM9.605 0.545l-9.605 8.292 20.696 5.077 9.603-8.294-20.693-5.075zM21.86 30.776l8.439-7.288-8.439-2.069v9.358z"></path>
</symbol>
<symbol id="icon-smartphone" viewBox="0 0 20 32">
<path fill="#757575" style="fill: var(--color4, #757575)" d="M17 0h-14c-1.654 0-3 1.346-3 3v26c0 1.654 1.346 3 3 3h14c1.654 0 3-1.346 3-3v-26c0-1.654-1.346-3-3-3zM3 2h14c0.552 0 1 0.448 1 1v0 21h-16v-21c0-0.552 0.448-1 1-1v0zM17 30h-14c-0.552 0-1-0.448-1-1v0-3h16v3c0 0.552-0.448 1-1 1v0z"></path>
<path fill="#757575" style="fill: var(--color4, #757575)" d="M4.708 27.478c0.18 0.163 0.293 0.399 0.293 0.66s-0.113 0.497-0.292 0.659l-0.001 0.001c-0.186 0.17-0.435 0.275-0.708 0.275s-0.522-0.104-0.709-0.275l0.001 0.001c-0.18-0.163-0.293-0.399-0.293-0.66s0.113-0.497 0.292-0.659l0.001-0.001c0.186-0.17 0.435-0.275 0.708-0.275s0.522 0.104 0.709 0.275l-0.001-0.001z"></path>
</symbol>
<symbol id="icon-twitter-1" viewBox="0 0 32 32">
<path fill="#afb1b8" style="fill: var(--color3, #afb1b8)" d="M32 6.078c-1.1 0.493-2.376 0.857-3.713 1.028l-0.068 0.007c1.36-0.817 2.382-2.078 2.873-3.579l0.013-0.046c-1.197 0.722-2.591 1.273-4.076 1.573l-0.084 0.014c-1.2-1.279-2.9-2.076-4.787-2.076-3.622 0-6.558 2.936-6.558 6.558 0 0.001 0 0.003 0 0.004v-0c0 0.52 0.043 1.021 0.152 1.496-5.454-0.266-10.28-2.88-13.522-6.861-0.564 0.949-0.899 2.092-0.902 3.313v0.001c0 2.272 1.171 4.286 2.914 5.451-1.091-0.030-2.107-0.325-2.994-0.823l0.033 0.017v0.072c0.003 3.165 2.236 5.807 5.213 6.44l0.043 0.008c-0.499 0.136-1.071 0.215-1.662 0.215-0.020 0-0.041-0-0.061-0l0.003 0c-0.419 0-0.843-0.024-1.242-0.112 0.85 2.598 3.261 4.509 6.13 4.57-2.215 1.746-5.045 2.8-8.122 2.8-0.004 0-0.008 0-0.013 0h0.001c-0.018 0-0.040 0-0.062 0-0.531 0-1.055-0.034-1.569-0.099l0.061 0.006c2.826 1.846 6.287 2.944 10.004 2.944 0.021 0 0.042-0 0.063-0h-0.003c12.072 0 18.672-10 18.672-18.669 0-0.288-0.010-0.57-0.024-0.848 1.299-0.936 2.39-2.064 3.258-3.355l0.030-0.047z"></path>
</symbol>
</defs>
</svg>
